<svg width="59" height="59" viewBox="0 0 59 59" fill="none" xmlns="http://www.w3.org/2000/svg">
<rect x="11.6967" width="34.6867" height="34.6867" rx="2.69074" fill="#00B8BC"/>
<path d="M36.3317 12.6557H28.3859C28.2242 12.1987 27.9248 11.8031 27.5289 11.5233C27.1331 11.2435 26.6602 11.0933 26.1755 11.0933C25.6907 11.0933 25.2179 11.2435 24.8221 11.5233C24.4262 11.8031 24.1268 12.1987 23.9651 12.6557H21.7484V14.2182H23.9651C24.1263 14.6756 24.4256 15.0718 24.8215 15.352C25.2174 15.6322 25.6905 15.7827 26.1755 15.7827C26.6605 15.7827 27.1336 15.6322 27.5295 15.352C27.9254 15.0718 28.2246 14.6756 28.3859 14.2182H36.3317V12.6557ZM36.3317 20.4682H34.1151C33.9533 20.0112 33.6539 19.6156 33.2581 19.3358C32.8622 19.056 32.3894 18.9058 31.9047 18.9058C31.4199 18.9058 30.9471 19.056 30.5512 19.3358C30.1554 19.6156 29.856 20.0112 29.6942 20.4682H21.7484V22.0307H29.6942C29.856 22.4877 30.1554 22.8833 30.5512 23.1631C30.9471 23.4429 31.4199 23.5931 31.9047 23.5931C32.3894 23.5931 32.8622 23.4429 33.2581 23.1631C33.6539 22.8833 33.9533 22.4877 34.1151 22.0307H36.3317V20.4682Z" fill="black"/>
<path d="M1.52399 49.9587C1.40399 49.5267 1.28799 49.0947 1.17599 48.6627C1.06399 48.2227 0.955992 47.7827 0.851992 47.3427C0.747992 46.9027 0.647992 46.4627 0.551992 46.0227C0.455992 45.5827 0.367992 45.1427 0.287992 44.7027C0.207992 44.2627 0.139992 43.8187 0.0839922 43.3707C0.0279922 42.9227 -7.7635e-06 42.4707 -7.7635e-06 42.0147V41.1387H1.33199V42.0147C1.33199 42.5667 1.36399 43.1147 1.42799 43.6587C1.49999 44.2027 1.57999 44.7467 1.66799 45.2907C1.75599 45.8267 1.85199 46.3627 1.95599 46.8987C2.06799 47.4347 2.17999 47.9707 2.29199 48.5067C2.40399 47.9707 2.51199 47.4347 2.61599 46.8987C2.72799 46.3627 2.82799 45.8267 2.91599 45.2907C3.00399 44.7467 3.07999 44.2027 3.14399 43.6587C3.21599 43.1147 3.25199 42.5667 3.25199 42.0147V41.1387H4.58399V42.0147C4.58399 42.4707 4.55599 42.9227 4.49999 43.3707C4.44399 43.8187 4.37599 44.2627 4.29599 44.7027C4.21599 45.1427 4.12799 45.5827 4.03199 46.0227C3.93599 46.4627 3.83599 46.9027 3.73199 47.3427C3.62799 47.7827 3.51999 48.2227 3.40799 48.6627C3.29599 49.0947 3.17999 49.5267 3.05999 49.9587H1.52399ZM8.93999 49.9587H8.45999C8.29999 49.9587 8.13999 49.9467 7.97999 49.9227C7.81999 49.8987 7.66799 49.8547 7.52399 49.7907C7.37999 49.7187 7.24399 49.6307 7.11599 49.5267C6.99599 49.4147 6.89599 49.2907 6.81599 49.1547C6.74399 49.0107 6.69199 48.8587 6.65999 48.6987C6.63599 48.5387 6.62399 48.3787 6.62399 48.2187V44.8707H5.89199V43.7187H7.95599V48.2187C7.95599 48.2907 7.96399 48.3627 7.97999 48.4347C7.99599 48.5067 8.02799 48.5747 8.07599 48.6387C8.12399 48.6947 8.17999 48.7387 8.24399 48.7707C8.31599 48.7947 8.38799 48.8067 8.45999 48.8067H8.93999V49.9587ZM7.29599 42.8787C7.16799 42.8787 7.03999 42.8587 6.91199 42.8187C6.78399 42.7787 6.67199 42.7147 6.57599 42.6267C6.48799 42.5387 6.42399 42.4307 6.38399 42.3027C6.35199 42.1747 6.33599 42.0467 6.33599 41.9187C6.33599 41.7907 6.35199 41.6627 6.38399 41.5347C6.42399 41.4067 6.48799 41.2987 6.57599 41.2107C6.67199 41.1227 6.78399 41.0587 6.91199 41.0187C7.03999 40.9787 7.16799 40.9587 7.29599 40.9587C7.42399 40.9587 7.55199 40.9787 7.67999 41.0187C7.80799 41.0587 7.91599 41.1227 8.00399 41.2107C8.09199 41.2987 8.15599 41.4067 8.19599 41.5347C8.23599 41.6627 8.25599 41.7907 8.25599 41.9187C8.25599 42.0467 8.23599 42.1747 8.19599 42.3027C8.15599 42.4307 8.09199 42.5387 8.00399 42.6267C7.91599 42.7147 7.80799 42.7787 7.67999 42.8187C7.55199 42.8587 7.42399 42.8787 7.29599 42.8787ZM12.2761 50.0547C12.0921 50.0547 11.9081 50.0427 11.7241 50.0187C11.5481 50.0027 11.3761 49.9667 11.2081 49.9107C11.0401 49.8547 10.8761 49.7787 10.7161 49.6827C10.5641 49.5787 10.4321 49.4587 10.3201 49.3227C10.2081 49.1787 10.1201 49.0187 10.0561 48.8427C10.0001 48.6667 9.97209 48.4907 9.97209 48.3147V48.2307H11.3041V48.2547C11.3041 48.3667 11.3361 48.4707 11.4001 48.5667C11.4641 48.6547 11.5441 48.7267 11.6401 48.7827C11.7361 48.8307 11.8361 48.8627 11.9401 48.8787C12.0521 48.8947 12.1641 48.9027 12.2761 48.9027C12.3801 48.9027 12.4841 48.8947 12.5881 48.8787C12.7001 48.8627 12.8041 48.8347 12.9001 48.7947C12.9961 48.7467 13.0761 48.6787 13.1401 48.5907C13.2121 48.5027 13.2481 48.4067 13.2481 48.3027C13.2481 48.1747 13.2041 48.0587 13.1161 47.9547C13.0361 47.8427 12.9401 47.7587 12.8281 47.7027C12.7161 47.6387 12.5961 47.5867 12.4681 47.5467C12.3481 47.5067 12.2241 47.4667 12.0961 47.4267C11.9761 47.3867 11.8561 47.3467 11.7361 47.3067C11.6161 47.2587 11.4961 47.2067 11.3761 47.1507C11.2641 47.0867 11.1521 47.0187 11.0401 46.9467C10.9361 46.8747 10.8361 46.7987 10.7401 46.7187C10.6441 46.6307 10.5561 46.5387 10.4761 46.4427C10.3961 46.3387 10.3241 46.2307 10.2601 46.1187C10.2041 45.9987 10.1601 45.8747 10.1281 45.7467C10.1041 45.6187 10.0921 45.4907 10.0921 45.3627C10.0921 45.1867 10.1201 45.0147 10.1761 44.8467C10.2321 44.6707 10.3121 44.5147 10.4161 44.3787C10.5201 44.2347 10.6441 44.1147 10.7881 44.0187C10.9401 43.9147 11.0961 43.8347 11.2561 43.7787C11.4241 43.7147 11.5961 43.6747 11.7721 43.6587C11.9481 43.6347 12.1241 43.6227 12.3001 43.6227C12.4761 43.6227 12.6521 43.6347 12.8281 43.6587C13.0041 43.6747 13.1721 43.7147 13.3321 43.7787C13.5001 43.8347 13.6561 43.9147 13.8001 44.0187C13.9521 44.1147 14.0801 44.2347 14.1841 44.3787C14.2961 44.5227 14.3761 44.6787 14.4241 44.8467C14.4801 45.0147 14.5081 45.1867 14.5081 45.3627V45.4467H13.1761V45.4227C13.1761 45.3187 13.1481 45.2227 13.0921 45.1347C13.0361 45.0387 12.9641 44.9667 12.8761 44.9187C12.7961 44.8627 12.7041 44.8267 12.6001 44.8107C12.5041 44.7867 12.4041 44.7747 12.3001 44.7747C12.2041 44.7747 12.1041 44.7827 12.0001 44.7987C11.9041 44.8147 11.8121 44.8467 11.7241 44.8947C11.6361 44.9427 11.5641 45.0107 11.5081 45.0987C11.4521 45.1787 11.4241 45.2707 11.4241 45.3747C11.4241 45.5027 11.4641 45.6187 11.5441 45.7227C11.6321 45.8267 11.7321 45.9107 11.8441 45.9747C11.9561 46.0387 12.0721 46.0907 12.1921 46.1307C12.3201 46.1707 12.4441 46.2107 12.5641 46.2507C12.6921 46.2907 12.8161 46.3347 12.9361 46.3827C13.0561 46.4227 13.1721 46.4747 13.2841 46.5387C13.4041 46.5947 13.5161 46.6587 13.6201 46.7307C13.7321 46.7947 13.8361 46.8707 13.9321 46.9587C14.0281 47.0467 14.1161 47.1427 14.1961 47.2467C14.2761 47.3427 14.3441 47.4507 14.4001 47.5707C14.4561 47.6827 14.5001 47.8027 14.5321 47.9307C14.5641 48.0587 14.5801 48.1867 14.5801 48.3147C14.5801 48.4907 14.5481 48.6667 14.4841 48.8427C14.4281 49.0187 14.3441 49.1787 14.2321 49.3227C14.1201 49.4587 13.9841 49.5787 13.8241 49.6827C13.6721 49.7787 13.5121 49.8547 13.3441 49.9107C13.1761 49.9667 13.0001 50.0027 12.8161 50.0187C12.6401 50.0427 12.4601 50.0547 12.2761 50.0547ZM17.6641 50.0547C17.4241 50.0547 17.1881 50.0187 16.9561 49.9467C16.7241 49.8747 16.5241 49.7547 16.3561 49.5867C16.1961 49.4107 16.0801 49.2067 16.0081 48.9747C15.9361 48.7427 15.9001 48.5067 15.9001 48.2667C15.9001 48.0587 15.9241 47.8507 15.9721 47.6427C16.0281 47.4267 16.1161 47.2347 16.2361 47.0667C16.3641 46.8987 16.5161 46.7547 16.6921 46.6347C16.8761 46.5067 17.0681 46.4107 17.2681 46.3467C17.4681 46.2747 17.6721 46.2267 17.8801 46.2027C18.0961 46.1707 18.3081 46.1547 18.5161 46.1547H19.2481V45.7467C19.2481 45.6107 19.2281 45.4827 19.1881 45.3627C19.1481 45.2347 19.0801 45.1267 18.9841 45.0387C18.8961 44.9427 18.7881 44.8747 18.6601 44.8347C18.5321 44.7947 18.4041 44.7747 18.2761 44.7747C18.1561 44.7747 18.0401 44.7867 17.9281 44.8107C17.8161 44.8347 17.7121 44.8827 17.6161 44.9547C17.5201 45.0187 17.4441 45.1067 17.3881 45.2187C17.3321 45.3227 17.3041 45.4307 17.3041 45.5427V45.5667H15.9721V45.5067C15.9721 45.3227 16.0001 45.1427 16.0561 44.9667C16.1121 44.7827 16.1921 44.6147 16.2961 44.4627C16.4001 44.3027 16.5281 44.1707 16.6801 44.0667C16.8401 43.9547 17.0041 43.8667 17.1721 43.8027C17.3481 43.7307 17.5281 43.6827 17.7121 43.6587C17.9041 43.6347 18.0921 43.6227 18.2761 43.6227C18.4761 43.6227 18.6721 43.6387 18.8641 43.6707C19.0641 43.6947 19.2521 43.7467 19.4281 43.8267C19.6121 43.9067 19.7801 44.0147 19.9321 44.1507C20.0841 44.2787 20.2081 44.4307 20.3041 44.6067C20.4081 44.7747 20.4801 44.9587 20.5201 45.1587C20.5601 45.3507 20.5801 45.5467 20.5801 45.7467V49.9587H19.2481V48.9747C19.1841 49.1347 19.1001 49.2867 18.9961 49.4307C18.8921 49.5667 18.7681 49.6827 18.6241 49.7787C18.4881 49.8747 18.3361 49.9427 18.1681 49.9827C18.0001 50.0307 17.8321 50.0547 17.6641 50.0547ZM18.2281 48.9027C18.3721 48.9027 18.5121 48.8787 18.6481 48.8307C18.7841 48.7827 18.8961 48.7067 18.9841 48.6027C19.0801 48.4907 19.1481 48.3667 19.1881 48.2307C19.2281 48.0867 19.2481 47.9427 19.2481 47.7987V47.3067H18.5161C18.4201 47.3067 18.3241 47.3107 18.2281 47.3187C18.1321 47.3267 18.0361 47.3427 17.9401 47.3667C17.8521 47.3907 17.7641 47.4267 17.6761 47.4747C17.5881 47.5147 17.5081 47.5667 17.4361 47.6307C17.3721 47.6947 17.3201 47.7747 17.2801 47.8707C17.2481 47.9587 17.2321 48.0507 17.2321 48.1467C17.2321 48.2587 17.2601 48.3707 17.3161 48.4827C17.3721 48.5867 17.4481 48.6707 17.5441 48.7347C17.6481 48.7987 17.7601 48.8427 17.8801 48.8667C18.0001 48.8907 18.1161 48.9027 18.2281 48.9027ZM18.9721 42.7947C18.9321 42.7947 18.8921 42.7947 18.8521 42.7947C18.8201 42.7867 18.7841 42.7787 18.7441 42.7707C18.7041 42.7627 18.6681 42.7547 18.6361 42.7467C18.6041 42.7307 18.5681 42.7147 18.5281 42.6987C18.4961 42.6827 18.4601 42.6667 18.4201 42.6507C18.3881 42.6267 18.3561 42.6067 18.3241 42.5907C18.3001 42.5667 18.2721 42.5427 18.2401 42.5187C18.2081 42.4947 18.1761 42.4707 18.1441 42.4467C18.1201 42.4147 18.0961 42.3867 18.0721 42.3627C18.0481 42.3307 18.0241 42.3027 18.0001 42.2787C17.9761 42.2467 17.9521 42.2227 17.9281 42.2067C17.9121 42.1827 17.8881 42.1507 17.8561 42.1107C17.8241 42.0707 17.7921 42.0347 17.7601 42.0027C17.7361 41.9707 17.7121 41.9427 17.6881 41.9187C17.6641 41.8867 17.6361 41.8587 17.6041 41.8347C17.5721 41.8027 17.5561 41.7827 17.5561 41.7747H17.6401C17.6401 41.7827 17.6281 41.7987 17.6041 41.8227C17.5801 41.8387 17.5521 41.8627 17.5201 41.8947C17.4961 41.9187 17.4801 41.9387 17.4721 41.9547C17.4641 41.9627 17.4521 41.9747 17.4361 41.9907C17.4281 42.0067 17.4161 42.0227 17.4001 42.0387C17.3921 42.0547 17.3801 42.0747 17.3641 42.0987C17.3481 42.1147 17.3321 42.1347 17.3161 42.1587C17.3081 42.1747 17.2961 42.1947 17.2801 42.2187C17.2641 42.2427 17.2481 42.2707 17.2321 42.3027C17.2161 42.3267 17.2001 42.3547 17.1841 42.3867C17.1681 42.4107 17.1521 42.4387 17.1361 42.4707C17.1201 42.4947 17.1001 42.5227 17.0761 42.5547C17.0601 42.5867 17.0441 42.6227 17.0281 42.6627C17.0121 42.6947 16.9961 42.7267 16.9801 42.7587L15.9961 42.3267C16.0681 42.1827 16.1401 42.0507 16.2121 41.9307C16.2841 41.8107 16.3521 41.7027 16.4161 41.6067C16.4881 41.5107 16.5601 41.4227 16.6321 41.3427C16.7041 41.2547 16.7881 41.1707 16.8841 41.0907C16.9881 41.0107 17.1001 40.9467 17.2201 40.8987C17.3481 40.8507 17.4761 40.8267 17.6041 40.8267C17.6361 40.8267 17.6721 40.8307 17.7121 40.8387C17.7521 40.8387 17.7881 40.8427 17.8201 40.8507C17.8601 40.8587 17.8961 40.8707 17.9281 40.8867C17.9681 40.8947 18.0041 40.9067 18.0361 40.9227C18.0761 40.9387 18.1121 40.9587 18.1441 40.9827C18.1761 40.9987 18.2041 41.0187 18.2281 41.0427C18.2601 41.0587 18.2921 41.0827 18.3241 41.1147C18.3561 41.1387 18.3881 41.1667 18.4201 41.1987C18.4521 41.2227 18.4801 41.2467 18.5041 41.2707C18.5281 41.2947 18.5521 41.3227 18.5761 41.3547C18.6001 41.3787 18.6201 41.4027 18.6361 41.4267C18.6521 41.4427 18.6761 41.4707 18.7081 41.5107C18.7401 41.5507 18.7681 41.5867 18.7921 41.6187C18.8241 41.6507 18.8521 41.6827 18.8761 41.7147C18.9001 41.7387 18.9281 41.7667 18.9601 41.7987C18.9921 41.8227 19.0081 41.8387 19.0081 41.8467H18.9361C18.9361 41.8387 18.9481 41.8267 18.9721 41.8107C18.9961 41.7947 19.0201 41.7707 19.0441 41.7387C19.0761 41.7067 19.0961 41.6867 19.1041 41.6787C19.1121 41.6627 19.1201 41.6507 19.1281 41.6427C19.1441 41.6267 19.1561 41.6107 19.1641 41.5947C19.1801 41.5707 19.1921 41.5507 19.2001 41.5347C19.2161 41.5107 19.2321 41.4907 19.2481 41.4747C19.2641 41.4507 19.2801 41.4267 19.2961 41.4027C19.3121 41.3787 19.3281 41.3547 19.3441 41.3307C19.3601 41.3067 19.3761 41.2827 19.3921 41.2587C19.4081 41.2267 19.4241 41.1947 19.4401 41.1627C19.4561 41.1307 19.4721 41.0987 19.4881 41.0667C19.5041 41.0347 19.5201 41.0027 19.5361 40.9707C19.5601 40.9387 19.5801 40.9027 19.5961 40.8627L20.5801 41.2947C20.5001 41.4387 20.4241 41.5707 20.3521 41.6907C20.2881 41.8107 20.2201 41.9187 20.1481 42.0147C20.0841 42.1107 20.0121 42.2027 19.9321 42.2907C19.8601 42.3787 19.7721 42.4627 19.6681 42.5427C19.5721 42.6147 19.4641 42.6747 19.3441 42.7227C19.2241 42.7707 19.1001 42.7947 18.9721 42.7947ZM24.2881 50.0547C24.0721 50.0547 23.8521 50.0347 23.6281 49.9947C23.4121 49.9547 23.2081 49.8827 23.0161 49.7787C22.8241 49.6747 22.6521 49.5427 22.5001 49.3827C22.3561 49.2147 22.2361 49.0347 22.1401 48.8427C22.0521 48.6427 21.9881 48.4347 21.9481 48.2187C21.9161 47.9947 21.9001 47.7747 21.9001 47.5587V46.1187C21.9001 45.9027 21.9161 45.6867 21.9481 45.4707C21.9881 45.2467 22.0521 45.0387 22.1401 44.8467C22.2361 44.6467 22.3561 44.4667 22.5001 44.3067C22.6521 44.1387 22.8241 44.0027 23.0161 43.8987C23.2081 43.7947 23.4121 43.7227 23.6281 43.6827C23.8521 43.6427 24.0721 43.6227 24.2881 43.6227C24.5041 43.6227 24.7201 43.6427 24.9361 43.6827C25.1601 43.7227 25.3681 43.7947 25.5601 43.8987C25.7521 44.0027 25.9201 44.1387 26.0641 44.3067C26.2161 44.4667 26.3361 44.6467 26.4241 44.8467C26.5201 45.0387 26.5841 45.2467 26.6161 45.4707C26.6561 45.6867 26.6761 45.9027 26.6761 46.1187V47.5587C26.6761 47.7747 26.6561 47.9947 26.6161 48.2187C26.5841 48.4347 26.5201 48.6427 26.4241 48.8427C26.3361 49.0347 26.2161 49.2147 26.0641 49.3827C25.9201 49.5427 25.7521 49.6747 25.5601 49.7787C25.3681 49.8827 25.1601 49.9547 24.9361 49.9947C24.7201 50.0347 24.5041 50.0547 24.2881 50.0547ZM24.2881 48.9027C24.4481 48.9027 24.6001 48.8667 24.7441 48.7947C24.8961 48.7227 25.0161 48.6187 25.1041 48.4827C25.2001 48.3467 25.2641 48.1987 25.2961 48.0387C25.3281 47.8787 25.3441 47.7187 25.3441 47.5587V46.1187C25.3441 45.9587 25.3281 45.7987 25.2961 45.6387C25.2641 45.4787 25.2001 45.3307 25.1041 45.1947C25.0161 45.0587 24.8961 44.9547 24.7441 44.8827C24.6001 44.8107 24.4481 44.7747 24.2881 44.7747C24.1281 44.7747 23.9721 44.8107 23.8201 44.8827C23.6761 44.9547 23.5561 45.0587 23.4601 45.1947C23.3721 45.3307 23.3121 45.4787 23.2801 45.6387C23.2481 45.7987 23.2321 45.9587 23.2321 46.1187V47.5587C23.2321 47.7187 23.2481 47.8787 23.2801 48.0387C23.3121 48.1987 23.3721 48.3467 23.4601 48.4827C23.5561 48.6187 23.6761 48.7227 23.8201 48.7947C23.9721 48.8667 24.1281 48.9027 24.2881 48.9027ZM33.744 50.0547C33.528 50.0547 33.308 50.0307 33.084 49.9827C32.868 49.9427 32.664 49.8667 32.472 49.7547C32.288 49.6427 32.124 49.5027 31.98 49.3347C31.836 49.1667 31.72 48.9827 31.632 48.7827C31.544 48.5827 31.484 48.3747 31.452 48.1587C31.42 47.9347 31.404 47.7147 31.404 47.4987V43.5987C31.404 43.3827 31.42 43.1667 31.452 42.9507C31.484 42.7267 31.544 42.5147 31.632 42.3147C31.72 42.1147 31.836 41.9307 31.98 41.7627C32.132 41.5867 32.3 41.4467 32.484 41.3427C32.676 41.2307 32.88 41.1547 33.096 41.1147C33.32 41.0667 33.54 41.0427 33.756 41.0427C33.964 41.0427 34.168 41.0627 34.368 41.1027C34.576 41.1347 34.772 41.1987 34.956 41.2947C35.14 41.3827 35.304 41.5027 35.448 41.6547C35.6 41.7987 35.724 41.9627 35.82 42.1467C35.916 42.3227 35.988 42.5147 36.036 42.7227C36.084 42.9227 36.108 43.1267 36.108 43.3347V43.4067H34.776V43.3707C34.776 43.2267 34.756 43.0827 34.716 42.9387C34.676 42.7947 34.612 42.6667 34.524 42.5547C34.436 42.4347 34.32 42.3467 34.176 42.2907C34.04 42.2267 33.9 42.1947 33.756 42.1947C33.644 42.1947 33.536 42.2107 33.432 42.2427C33.328 42.2747 33.236 42.3267 33.156 42.3987C33.076 42.4707 33.008 42.5547 32.952 42.6507C32.896 42.7467 32.852 42.8467 32.82 42.9507C32.788 43.0547 32.764 43.1627 32.748 43.2747C32.74 43.3787 32.736 43.4867 32.736 43.5987V47.4987C32.736 47.6027 32.74 47.7107 32.748 47.8227C32.764 47.9267 32.788 48.0307 32.82 48.1347C32.852 48.2387 32.892 48.3387 32.94 48.4347C32.996 48.5307 33.064 48.6147 33.144 48.6867C33.224 48.7587 33.316 48.8147 33.42 48.8547C33.524 48.8867 33.632 48.9027 33.744 48.9027C33.856 48.9027 33.964 48.8867 34.068 48.8547C34.172 48.8147 34.264 48.7587 34.344 48.6867C34.424 48.6147 34.488 48.5307 34.536 48.4347C34.592 48.3387 34.636 48.2387 34.668 48.1347C34.7 48.0307 34.72 47.9267 34.728 47.8227C34.744 47.7107 34.752 47.6027 34.752 47.4987V46.2387H33.792V45.0867H36.084V47.4987C36.084 47.7147 36.068 47.9347 36.036 48.1587C36.004 48.3747 35.944 48.5827 35.856 48.7827C35.768 48.9827 35.652 49.1667 35.508 49.3347C35.364 49.5027 35.196 49.6427 35.004 49.7547C34.82 49.8667 34.616 49.9427 34.392 49.9827C34.176 50.0307 33.96 50.0547 33.744 50.0547ZM39.792 50.0547C39.568 50.0547 39.348 50.0347 39.132 49.9947C38.916 49.9547 38.712 49.8827 38.52 49.7787C38.328 49.6747 38.156 49.5427 38.004 49.3827C37.86 49.2147 37.74 49.0307 37.644 48.8307C37.556 48.6307 37.492 48.4227 37.452 48.2067C37.42 47.9907 37.404 47.7747 37.404 47.5587V46.1187C37.404 45.9027 37.42 45.6867 37.452 45.4707C37.492 45.2467 37.556 45.0387 37.644 44.8467C37.74 44.6467 37.864 44.4667 38.016 44.3067C38.168 44.1387 38.34 44.0027 38.532 43.8987C38.724 43.7947 38.928 43.7227 39.144 43.6827C39.36 43.6427 39.576 43.6227 39.792 43.6227C39.992 43.6227 40.188 43.6347 40.38 43.6587C40.58 43.6827 40.772 43.7307 40.956 43.8027C41.14 43.8747 41.312 43.9707 41.472 44.0907C41.632 44.2107 41.764 44.3507 41.868 44.5107C41.98 44.6707 42.06 44.8507 42.108 45.0507C42.156 45.2427 42.18 45.4347 42.18 45.6267C42.18 45.8267 42.156 46.0227 42.108 46.2147C42.06 46.4067 41.976 46.5827 41.856 46.7427C41.744 46.8947 41.604 47.0267 41.436 47.1387C41.276 47.2507 41.104 47.3387 40.92 47.4027C40.736 47.4667 40.544 47.5107 40.344 47.5347C40.152 47.5587 39.96 47.5707 39.768 47.5707H38.748C38.748 47.7307 38.764 47.8907 38.796 48.0507C38.828 48.2107 38.888 48.3587 38.976 48.4947C39.064 48.6227 39.18 48.7227 39.324 48.7947C39.476 48.8667 39.632 48.9027 39.792 48.9027C39.912 48.9027 40.032 48.8907 40.152 48.8667C40.272 48.8427 40.38 48.7987 40.476 48.7347C40.58 48.6627 40.66 48.5707 40.716 48.4587C40.78 48.3467 40.816 48.2307 40.824 48.1107H42.156C42.156 48.3027 42.128 48.4907 42.072 48.6747C42.016 48.8587 41.932 49.0307 41.82 49.1907C41.708 49.3507 41.572 49.4867 41.412 49.5987C41.26 49.7107 41.092 49.8027 40.908 49.8747C40.732 49.9467 40.548 49.9947 40.356 50.0187C40.172 50.0427 39.984 50.0547 39.792 50.0547ZM38.736 46.4187H39.768C39.896 46.4187 40.02 46.4107 40.14 46.3947C40.268 46.3707 40.384 46.3267 40.488 46.2627C40.6 46.1907 40.688 46.0987 40.752 45.9867C40.816 45.8747 40.848 45.7547 40.848 45.6267C40.848 45.4987 40.82 45.3747 40.764 45.2547C40.708 45.1347 40.628 45.0387 40.524 44.9667C40.42 44.8947 40.304 44.8467 40.176 44.8227C40.048 44.7907 39.924 44.7747 39.804 44.7747C39.636 44.7747 39.476 44.8107 39.324 44.8827C39.18 44.9547 39.06 45.0587 38.964 45.1947C38.876 45.3307 38.816 45.4787 38.784 45.6387C38.752 45.7987 38.736 45.9587 38.736 46.1187V46.4187ZM44.172 49.9587V43.7187H45.516V45.0147C45.564 44.8387 45.624 44.6707 45.696 44.5107C45.776 44.3427 45.876 44.1907 45.996 44.0547C46.116 43.9187 46.26 43.8147 46.428 43.7427C46.596 43.6627 46.768 43.6227 46.944 43.6227C47.096 43.6227 47.244 43.6467 47.388 43.6947C47.54 43.7427 47.672 43.8187 47.784 43.9227C47.896 44.0267 47.984 44.1467 48.048 44.2827C48.12 44.4187 48.176 44.5627 48.216 44.7147C48.256 44.8587 48.28 45.0067 48.288 45.1587C48.304 45.3107 48.312 45.4627 48.312 45.6147H46.968C46.968 45.5187 46.96 45.4227 46.944 45.3267C46.936 45.2307 46.912 45.1427 46.872 45.0627C46.832 44.9747 46.768 44.9067 46.68 44.8587C46.6 44.8027 46.512 44.7747 46.416 44.7747C46.288 44.7747 46.168 44.8147 46.056 44.8947C45.952 44.9667 45.868 45.0587 45.804 45.1707C45.74 45.2747 45.688 45.3907 45.648 45.5187C45.616 45.6387 45.588 45.7627 45.564 45.8907C45.548 46.0187 45.536 46.1467 45.528 46.2747C45.52 46.3947 45.516 46.5187 45.516 46.6467V49.9587H44.172ZM51.168 50.0547C50.928 50.0547 50.692 50.0187 50.46 49.9467C50.228 49.8747 50.028 49.7547 49.86 49.5867C49.7 49.4107 49.584 49.2067 49.512 48.9747C49.44 48.7427 49.404 48.5067 49.404 48.2667C49.404 48.0587 49.428 47.8507 49.476 47.6427C49.532 47.4267 49.62 47.2347 49.74 47.0667C49.868 46.8987 50.02 46.7547 50.196 46.6347C50.38 46.5067 50.572 46.4107 50.772 46.3467C50.972 46.2747 51.176 46.2267 51.384 46.2027C51.6 46.1707 51.812 46.1547 52.02 46.1547H52.752V45.7467C52.752 45.6107 52.732 45.4827 52.692 45.3627C52.652 45.2347 52.584 45.1267 52.488 45.0387C52.4 44.9427 52.292 44.8747 52.164 44.8347C52.036 44.7947 51.908 44.7747 51.78 44.7747C51.66 44.7747 51.544 44.7867 51.432 44.8107C51.32 44.8347 51.216 44.8827 51.12 44.9547C51.024 45.0187 50.948 45.1067 50.892 45.2187C50.836 45.3227 50.808 45.4307 50.808 45.5427V45.5667H49.476V45.5067C49.476 45.3227 49.504 45.1427 49.56 44.9667C49.616 44.7827 49.696 44.6147 49.8 44.4627C49.904 44.3027 50.032 44.1707 50.184 44.0667C50.344 43.9547 50.508 43.8667 50.676 43.8027C50.852 43.7307 51.032 43.6827 51.216 43.6587C51.408 43.6347 51.596 43.6227 51.78 43.6227C51.98 43.6227 52.176 43.6387 52.368 43.6707C52.568 43.6947 52.756 43.7467 52.932 43.8267C53.116 43.9067 53.284 44.0147 53.436 44.1507C53.588 44.2787 53.712 44.4307 53.808 44.6067C53.912 44.7747 53.984 44.9587 54.024 45.1587C54.064 45.3507 54.084 45.5467 54.084 45.7467V49.9587H52.752V48.9747C52.688 49.1347 52.604 49.2867 52.5 49.4307C52.396 49.5667 52.272 49.6827 52.128 49.7787C51.992 49.8747 51.84 49.9427 51.672 49.9827C51.504 50.0307 51.336 50.0547 51.168 50.0547ZM51.732 48.9027C51.876 48.9027 52.016 48.8787 52.152 48.8307C52.288 48.7827 52.4 48.7067 52.488 48.6027C52.584 48.4907 52.652 48.3667 52.692 48.2307C52.732 48.0867 52.752 47.9427 52.752 47.7987V47.3067H52.02C51.924 47.3067 51.828 47.3107 51.732 47.3187C51.636 47.3267 51.54 47.3427 51.444 47.3667C51.356 47.3907 51.268 47.4267 51.18 47.4747C51.092 47.5147 51.012 47.5667 50.94 47.6307C50.876 47.6947 50.824 47.7747 50.784 47.8707C50.752 47.9587 50.736 48.0507 50.736 48.1467C50.736 48.2587 50.764 48.3707 50.82 48.4827C50.876 48.5867 50.952 48.6707 51.048 48.7347C51.152 48.7987 51.264 48.8427 51.384 48.8667C51.504 48.8907 51.62 48.9027 51.732 48.9027ZM58.44 49.9587H57.96C57.8 49.9587 57.64 49.9467 57.48 49.9227C57.32 49.8987 57.168 49.8547 57.024 49.7907C56.88 49.7187 56.744 49.6307 56.616 49.5267C56.496 49.4147 56.396 49.2907 56.316 49.1547C56.244 49.0107 56.192 48.8587 56.16 48.6987C56.136 48.5387 56.124 48.3787 56.124 48.2187V42.2907H55.392V41.1387H57.456V48.2187C57.456 48.2907 57.464 48.3627 57.48 48.4347C57.496 48.5067 57.528 48.5747 57.576 48.6387C57.624 48.6947 57.68 48.7387 57.744 48.7707C57.816 48.7947 57.888 48.8067 57.96 48.8067H58.44V49.9587Z" fill="black"/>
</svg>
