<svg width="51" height="51" viewBox="0 0 51 51" fill="none" xmlns="http://www.w3.org/2000/svg">
<g filter="url(#filter0_d_1483_1073)">
<path d="M25.3694 36.7973C35.0467 36.7973 42.8918 28.9523 42.8918 19.2749C42.8918 9.5975 35.0467 1.75244 25.3694 1.75244C15.692 1.75244 7.84692 9.5975 7.84692 19.2749C7.84692 28.9523 15.692 36.7973 25.3694 36.7973Z" fill="#00B8BC"/>
<path d="M25.3694 36.7973C35.0467 36.7973 42.8918 28.9523 42.8918 19.2749C42.8918 9.5975 35.0467 1.75244 25.3694 1.75244C15.692 1.75244 7.84692 9.5975 7.84692 19.2749C7.84692 28.9523 15.692 36.7973 25.3694 36.7973Z" stroke="#00B8BC" stroke-width="3.50449" stroke-linecap="round" stroke-linejoin="round"/>
</g>
<path d="M25.3694 12.2656V19.2746" stroke="#FFF0DC" stroke-width="3.50449" stroke-linecap="round" stroke-linejoin="round"/>
<path d="M25.3694 26.2842H25.388" stroke="#FFF0DC" stroke-width="3.50449" stroke-linecap="round" stroke-linejoin="round"/>
<defs>
<filter id="filter0_d_1483_1073" x="-3.38554e-05" y="0" width="50.7388" height="50.7388" filterUnits="userSpaceOnUse" color-interpolation-filters="sRGB">
<feFlood flood-opacity="0" result="BackgroundImageFix"/>
<feColorMatrix in="SourceAlpha" type="matrix" values="0 0 0 0 0 0 0 0 0 0 0 0 0 0 0 0 0 0 127 0" result="hardAlpha"/>
<feOffset dy="6.09476"/>
<feGaussianBlur stdDeviation="3.04738"/>
<feComposite in2="hardAlpha" operator="out"/>
<feColorMatrix type="matrix" values="0 0 0 0 0 0 0 0 0 0 0 0 0 0 0 0 0 0 0.25 0"/>
<feBlend mode="normal" in2="BackgroundImageFix" result="effect1_dropShadow_1483_1073"/>
<feBlend mode="normal" in="SourceGraphic" in2="effect1_dropShadow_1483_1073" result="shape"/>
</filter>
</defs>
</svg>
