<svg width="93" height="98" viewBox="0 0 93 98" fill="none" xmlns="http://www.w3.org/2000/svg">
<rect x="12.0781" width="71.2597" height="73.6753" rx="4.59486" fill="#00B8BC"/>
<g clip-path="url(#clip0_1242_946)">
<path d="M51.3394 39.4371C51.7069 40.4391 52.2149 42.0899 52.4792 44.2951C52.7766 46.7877 52.6237 48.8656 52.4792 50.0852H55.3619C55.4692 48.6069 55.527 46.4715 55.2586 43.9666C55.0191 41.7819 54.6061 40.0284 54.2509 38.7924C53.2804 39.0059 52.314 39.2195 51.3435 39.4371H51.3394Z" fill="#FFF0DC" stroke="black" stroke-width="0.245952" stroke-miterlimit="10"/>
<path d="M44.0257 39.4371C43.6705 40.4391 43.1791 42.0899 42.923 44.2951C42.6381 46.7877 42.7826 48.8656 42.923 50.0852H40.1395C40.0362 48.6069 39.9784 46.4715 40.2427 43.9666C40.474 41.7819 40.8705 40.0284 41.2174 38.7924C42.1549 39.0059 43.0923 39.2195 44.0257 39.4371Z" fill="#FFF0DC" stroke="black" stroke-width="0.245952" stroke-miterlimit="10"/>
<path d="M63.3784 27.4175C64.7908 28.4688 66.1991 29.5201 67.6115 30.5754C69.9119 28.2429 72.2081 25.9146 74.5084 23.5821C75.2353 24.4198 75.9663 25.2575 76.6931 26.0952C74.1656 28.6988 71.6423 31.2982 69.1148 33.9017C68.6729 34.1399 67.9584 34.4273 67.0953 34.3698C65.4929 34.2589 64.0475 33.0024 63.3784 31.1873V27.4216V27.4175Z" fill="#051319"/>
<path d="M31.7561 23.2615C30.1826 24.3333 28.605 25.401 27.0315 26.4728C25.0161 27.6719 23.4096 28.7806 22.2491 29.6348C20.5022 30.9201 19.8331 31.5607 19.7629 32.4436C19.701 33.2362 19.9612 34.1355 21.0349 34.9198C23.0173 36.3694 25.0037 37.819 26.9861 39.2686C27.7501 38.3282 28.51 37.3837 29.274 36.4433C27.589 35.3017 25.8999 34.1642 24.2149 33.0226C25.6604 31.9303 27.3619 30.7846 29.336 29.6964C30.5543 29.0229 31.7313 28.448 32.8422 27.9634C32.4788 26.3947 32.1154 24.8302 31.7519 23.2615H31.7561Z" fill="#051319"/>
<path d="M51.4507 49.7364C51.5622 50.3934 51.6489 51.1038 51.7067 51.8594C51.8306 53.5431 51.748 55.0543 51.5911 56.3314H54.1557V55.7524C54.4035 55.9454 54.6472 56.1384 54.895 56.3314H61.2426C62.1388 55.7524 62.717 54.7422 62.7046 53.6868C62.6839 52.0483 61.2467 50.8492 59.921 50.6809C58.3723 50.4838 57.2779 51.7321 57.1375 51.9005C56.9682 52.0319 56.7989 52.1633 56.6295 52.2906C56.5924 51.4406 56.5511 50.5905 56.5139 49.7446C55.7994 49.5968 54.9033 49.4736 53.8667 49.4818C52.9333 49.49 52.1197 49.5968 51.4548 49.7323L51.4507 49.7364Z" fill="black"/>
<path d="M44.0249 49.7362C43.9175 50.3932 43.8267 51.1036 43.773 51.8592C43.6532 53.5429 43.7317 55.0541 43.8886 56.3312H41.3694V55.7522C41.1299 55.9452 40.8862 56.1382 40.6467 56.3312H34.4147C33.535 55.7522 32.9693 54.742 32.9816 53.6866C33.0023 52.0481 34.4147 50.849 35.7156 50.6807C37.2354 50.4835 38.3092 51.7319 38.4496 51.9003C38.6148 52.0317 38.78 52.1631 38.9452 52.2904C38.9823 51.4404 39.0236 50.5903 39.0608 49.7444C39.7629 49.5965 40.6426 49.4733 41.6626 49.4816C42.5795 49.4898 43.3765 49.5965 44.029 49.7321L44.0249 49.7362Z" fill="black"/>
<path d="M61.223 19.2289H34.4614V37.6589H61.223V19.2289Z" fill="#00B8BC"/>
<path d="M64.2245 16.2843H31.4623C31.0452 16.2843 30.6982 16.621 30.6982 17.044V39.8474C30.6982 40.2621 31.0452 40.5989 31.4623 40.5989H64.2287C64.6458 40.5989 64.9844 40.2621 64.9844 39.8474V17.044C64.9844 16.621 64.6458 16.2843 64.2287 16.2843H64.2245ZM61.2221 36.8989C61.2221 37.3219 60.8752 37.6586 60.4581 37.6586H35.2246C34.7992 37.6586 34.4606 37.3219 34.4606 36.8989V19.9843C34.4606 19.5695 34.7992 19.2246 35.2246 19.2246H60.4581C60.8752 19.2246 61.2221 19.5695 61.2221 19.9843V36.8989Z" fill="#00202F" stroke="black" stroke-width="0.245952" stroke-miterlimit="10"/>
<path d="M46.3617 23.2613H46.0065C45.8605 23.2613 45.7422 23.3789 45.7422 23.5241V26.2097C45.7422 26.3549 45.8605 26.4726 46.0065 26.4726H46.3617C46.5076 26.4726 46.626 26.3549 46.626 26.2097V23.5241C46.626 23.3789 46.5076 23.2613 46.3617 23.2613Z" fill="black"/>
<path d="M49.8675 23.2613H49.5124C49.3664 23.2613 49.248 23.3789 49.248 23.5241V26.2097C49.248 26.3549 49.3664 26.4726 49.5124 26.4726H49.8675C50.0135 26.4726 50.1318 26.3549 50.1318 26.2097V23.5241C50.1318 23.3789 50.0135 23.2613 49.8675 23.2613Z" fill="black"/>
<path d="M42.4268 24.8669C42.4763 25.6101 42.7117 27.8276 44.4463 29.848C45.9248 31.5728 47.6965 32.2175 48.444 32.4433" stroke="black" stroke-width="0.737857" stroke-linecap="round" stroke-linejoin="round"/>
<path d="M80.7425 25.9266C80.6475 25.8814 80.408 25.7706 80.0817 25.5858C79.8918 25.479 79.739 25.3887 79.6481 25.3312C79.5738 25.2901 79.5283 25.2121 79.5407 25.1341C79.5449 25.0725 79.582 25.0191 79.6357 24.9944C79.6605 24.9698 79.6894 24.9657 79.7224 24.9575H79.7266C80.3419 24.6454 80.8045 24.3333 81.1142 24.1033C81.8245 23.5777 82.5018 23.0767 82.411 22.5716C82.3697 22.3375 82.1756 22.1938 82.1302 22.161C81.8122 21.9228 81.4074 22.009 80.0859 22.354C79.582 22.4854 79.1608 22.6003 78.8428 22.6866C78.8015 22.7276 78.7395 22.7482 78.69 22.7482C78.69 22.7482 78.6858 22.7495 78.6776 22.7523C78.6156 22.7523 78.5619 22.7235 78.5372 22.6866C78.5124 22.6496 78.5124 22.6003 78.533 22.547C78.5454 22.51 78.5619 22.4813 78.595 22.4525C78.8552 21.894 79.0864 21.3848 79.2805 20.9331C79.7555 19.8531 79.8546 19.5451 79.7059 19.2577C79.5531 18.962 79.1814 18.7608 78.8428 18.7772C78.2357 18.8101 77.7773 19.5492 77.3932 20.1734C77.3932 20.1734 76.8976 20.9783 76.3814 21.4546C76.3112 21.5203 76.1501 21.66 75.9932 21.623C75.8527 21.5901 75.7825 21.4259 75.7536 21.352C75.4687 20.6703 75.1548 20.005 74.8657 19.3234C74.5849 18.654 74.4362 18.3173 74.0976 18.1859C73.8002 18.0709 73.3542 18.1119 73.094 18.3666C72.743 18.7156 72.9082 19.2905 73.2468 21.3355C73.4781 22.7276 73.4946 23.0192 73.3542 23.3559C73.0651 24.0664 72.33 24.4565 71.7188 24.6741C72.2432 24.8425 73.1642 25.2162 74.0563 26.0334C75.002 26.904 75.4522 27.8567 75.6504 28.37C76.1584 27.2119 76.7944 26.9327 77.0835 26.8506C77.6864 26.674 78.277 26.8711 79.3879 27.3146C80.8251 27.8895 81.2257 28.1934 81.6676 27.9799C81.965 27.8361 82.1921 27.5035 82.1838 27.2078C82.1632 26.596 81.1225 26.1032 80.7425 25.9143V25.9266Z" fill="#FFF0DC" stroke="black" stroke-width="0.245952" stroke-miterlimit="10"/>
<path d="M80.4663 34.3366C80.5159 34.3202 80.5654 34.2956 80.6191 34.275C80.5778 34.3161 80.5159 34.3366 80.4663 34.3366Z" fill="#FFF0DC"/>
<path d="M33.4763 35.2276C33.4309 35.2687 33.3359 35.359 33.212 35.4822C33.1377 35.5562 33.0509 35.6424 32.956 35.741C32.8073 35.897 32.6916 36.0243 32.6214 36.1064C32.5636 36.168 32.543 36.2543 32.5801 36.32C32.6049 36.3734 32.6545 36.4062 32.7123 36.4103C32.7412 36.4226 32.7742 36.4185 32.8031 36.4144H32.8073C33.4846 36.4924 34.0173 36.6197 34.3808 36.7265C35.215 36.9647 36.0079 37.1946 36.074 37.671C36.1029 37.8928 35.9666 38.0817 35.9336 38.1268C35.7064 38.4389 35.2976 38.4964 33.9389 38.6114C33.4226 38.6566 32.989 38.6894 32.6627 38.7141C32.609 38.6894 32.5471 38.6935 32.5017 38.7099C32.5017 38.7099 32.4975 38.7099 32.4893 38.7099C32.4315 38.7305 32.3902 38.7715 32.3778 38.8126C32.3654 38.8537 32.3778 38.8947 32.4149 38.9358C32.4356 38.9645 32.4645 38.9851 32.5017 39.0015C32.9188 39.4163 33.2905 39.7941 33.6167 40.1308C34.3932 40.9398 34.5831 41.1779 34.5294 41.4818C34.4757 41.7898 34.1867 42.0937 33.8563 42.1881C33.2698 42.3565 32.6132 41.8432 32.0556 41.412C32.0556 41.412 31.3412 40.8576 30.7052 40.5989C30.6184 40.562 30.4243 40.4881 30.2881 40.5743C30.1683 40.6482 30.1476 40.8166 30.1435 40.8946C30.0774 41.5927 29.9866 42.2867 29.9246 42.9848C29.8627 43.6706 29.8255 44.0196 29.5447 44.2414C29.2969 44.4385 28.8633 44.5453 28.5411 44.4015C28.0992 44.2044 28.0827 43.6377 27.7812 41.7159C27.5747 40.4018 27.5004 40.139 27.2691 39.8844C26.7818 39.3423 25.9641 39.2356 25.3198 39.2356C25.8113 38.8414 26.501 38.209 27.1163 37.2768C27.7317 36.3446 28.029 35.4781 28.1777 34.8909C28.2851 35.0305 28.5246 35.2933 28.9335 35.4535C28.9582 35.4617 29.3134 35.5972 29.7305 35.5808C30.3789 35.5521 30.8043 35.1619 31.7707 34.4269C33.5259 33.0923 33.881 33.0882 34.0917 33.158C34.4138 33.2688 34.6657 33.6384 34.6492 33.9382C34.6327 34.2544 34.3229 34.4515 33.4804 35.2359L33.4763 35.2276Z" fill="#FFF0DC" stroke="black" stroke-width="0.245952" stroke-miterlimit="10"/>
<path d="M26.5542 39.4695C27.0415 39.026 27.6734 38.3525 28.2144 37.4163C28.6522 36.6607 28.9041 35.9544 29.0528 35.4041" stroke="black" stroke-width="0.122976" stroke-miterlimit="10"/>
<path d="M76.4522 27.2114C76.1094 26.6488 75.5684 25.9015 74.7466 25.191C74.0858 24.6161 73.4415 24.2342 72.9253 23.9837" stroke="black" stroke-width="0.122976" stroke-miterlimit="10"/>
</g>
<path d="M22.745 93.6753V84.4139H20.7014V83.0226H26.4119V84.4139H24.3683V93.6753H22.745ZM30.1077 93.7912C29.8758 93.7912 29.6488 93.7526 29.4265 93.6753C29.214 93.598 29.0207 93.482 28.8468 93.3274C28.6825 93.1632 28.5473 92.9796 28.441 92.7767C28.3347 92.5738 28.2477 92.3612 28.1801 92.139C28.1221 91.9167 28.0835 91.6945 28.0641 91.4723C28.0448 91.2404 28.0352 91.0085 28.0352 90.7766V86.1387H29.6439V90.7766C29.6439 90.9022 29.6488 91.0278 29.6584 91.1534C29.6778 91.279 29.7019 91.4046 29.7309 91.5303C29.7696 91.6462 29.8179 91.7573 29.8758 91.8636C29.9435 91.9699 30.0208 92.0665 30.1077 92.1535C30.2044 92.2404 30.3106 92.3032 30.4266 92.3419C30.5522 92.3805 30.6778 92.3999 30.8034 92.3999C30.929 92.3999 31.0498 92.3805 31.1658 92.3419C31.2914 92.3032 31.3977 92.2404 31.4846 92.1535C31.5812 92.0665 31.6585 91.9699 31.7165 91.8636C31.7841 91.7573 31.8325 91.6462 31.8614 91.5303C31.9001 91.4046 31.9243 91.279 31.9339 91.1534C31.9532 91.0278 31.9629 90.9022 31.9629 90.7766V86.1387H33.5717V92.0955C33.5717 92.1438 33.5765 92.1873 33.5862 92.2259C33.5958 92.2646 33.6152 92.2984 33.6441 92.3274C33.6731 92.3564 33.707 92.3757 33.7456 92.3854C33.7843 92.395 33.8277 92.3999 33.876 92.3999H34.1659V93.7912H33.876C33.6538 93.7912 33.4316 93.7671 33.2093 93.7188C32.9871 93.6705 32.7842 93.5835 32.6006 93.4579C32.417 93.3323 32.2673 93.1729 32.1513 92.9796C32.045 92.7767 31.9822 92.5641 31.9629 92.3419C31.8953 92.5448 31.8035 92.738 31.6875 92.9216C31.5812 93.1052 31.446 93.2646 31.2817 93.3999C31.1174 93.5352 30.9339 93.6318 30.731 93.6898C30.528 93.7574 30.3203 93.7912 30.1077 93.7912ZM38.8763 93.7912C38.6541 93.7912 38.427 93.7623 38.1951 93.7043C37.9729 93.6463 37.7651 93.5497 37.5719 93.4144C37.3883 93.2791 37.2289 93.1149 37.0936 92.9216C36.968 92.7284 36.8665 92.5255 36.7892 92.3129C36.7119 92.0907 36.6588 91.8636 36.6298 91.6317C36.6008 91.3998 36.5863 91.1679 36.5863 90.936V87.53H35.4413V86.1387H36.5863V83.0226H38.2096V86.1387H40.5141V87.53H38.2096V90.936C38.2096 91.0423 38.2096 91.1438 38.2096 91.2404C38.2193 91.337 38.2289 91.4336 38.2386 91.5303C38.2579 91.6269 38.2821 91.7235 38.3111 91.8201C38.34 91.9167 38.3739 92.0085 38.4125 92.0955C38.4608 92.1728 38.5236 92.2453 38.6009 92.3129C38.6879 92.3709 38.7797 92.3999 38.8763 92.3999C38.9729 92.3999 39.0599 92.3709 39.1372 92.3129C39.2241 92.2549 39.2918 92.1873 39.3401 92.11C39.3884 92.023 39.4222 91.9361 39.4415 91.8491C39.4705 91.7525 39.4947 91.6607 39.514 91.5737C39.5333 91.4771 39.543 91.3805 39.543 91.2839C39.5527 91.1872 39.5575 91.0954 39.5575 91.0085V90.936H41.1808V91.0665C41.1808 91.2887 41.1614 91.5109 41.1228 91.7332C41.0841 91.9554 41.0213 92.1728 40.9344 92.3854C40.8571 92.5883 40.7508 92.7815 40.6155 92.9651C40.4899 93.1487 40.3353 93.3081 40.1517 93.4434C39.9681 93.569 39.7652 93.656 39.543 93.7043C39.3304 93.7623 39.1082 93.7912 38.8763 93.7912ZM45.2969 93.7912C45.036 93.7912 44.7703 93.7671 44.4998 93.7188C44.2389 93.6705 43.9925 93.5835 43.7606 93.4579C43.5287 93.3323 43.321 93.1729 43.1374 92.9796C42.9635 92.7767 42.8185 92.5593 42.7026 92.3274C42.5963 92.0858 42.519 91.8346 42.4707 91.5737C42.432 91.3032 42.4127 91.0375 42.4127 90.7766V89.0374C42.4127 88.7765 42.432 88.5156 42.4707 88.2547C42.519 87.9842 42.5963 87.733 42.7026 87.5011C42.8185 87.2595 42.9635 87.0421 43.1374 86.8489C43.321 86.6459 43.5287 86.4817 43.7606 86.3561C43.9925 86.2305 44.2389 86.1435 44.4998 86.0952C44.7703 86.0469 45.036 86.0227 45.2969 86.0227C45.5578 86.0227 45.8187 86.0469 46.0796 86.0952C46.3501 86.1435 46.6013 86.2305 46.8332 86.3561C47.0651 86.4817 47.268 86.6459 47.442 86.8489C47.6255 87.0421 47.7705 87.2595 47.8768 87.5011C47.9927 87.733 48.07 87.9842 48.1087 88.2547C48.157 88.5156 48.1811 88.7765 48.1811 89.0374V90.7766C48.1811 91.0375 48.157 91.3032 48.1087 91.5737C48.07 91.8346 47.9927 92.0858 47.8768 92.3274C47.7705 92.5593 47.6255 92.7767 47.442 92.9796C47.268 93.1729 47.0651 93.3323 46.8332 93.4579C46.6013 93.5835 46.3501 93.6705 46.0796 93.7188C45.8187 93.7671 45.5578 93.7912 45.2969 93.7912ZM45.2969 92.3999C45.4902 92.3999 45.6738 92.3564 45.8477 92.2694C46.0313 92.1825 46.1762 92.0569 46.2825 91.8926C46.3984 91.7283 46.4757 91.5496 46.5144 91.3563C46.553 91.1631 46.5724 90.9698 46.5724 90.7766V89.0374C46.5724 88.8441 46.553 88.6509 46.5144 88.4576C46.4757 88.2644 46.3984 88.0856 46.2825 87.9214C46.1762 87.7571 46.0313 87.6315 45.8477 87.5445C45.6738 87.4576 45.4902 87.4141 45.2969 87.4141C45.1037 87.4141 44.9153 87.4576 44.7317 87.5445C44.5578 87.6315 44.4128 87.7571 44.2969 87.9214C44.1906 88.0856 44.1181 88.2644 44.0795 88.4576C44.0408 88.6509 44.0215 88.8441 44.0215 89.0374V90.7766C44.0215 90.9698 44.0408 91.1631 44.0795 91.3563C44.1181 91.5496 44.1906 91.7283 44.2969 91.8926C44.4128 92.0569 44.5578 92.1825 44.7317 92.2694C44.9153 92.3564 45.1037 92.3999 45.2969 92.3999ZM50.5871 93.6753V86.1387H52.2103V87.704C52.2683 87.4914 52.3408 87.2885 52.4277 87.0952C52.5244 86.8923 52.6451 86.7087 52.7901 86.5445C52.935 86.3802 53.1089 86.2546 53.3118 86.1677C53.5147 86.071 53.7225 86.0227 53.9351 86.0227C54.1186 86.0227 54.2974 86.0517 54.4713 86.1097C54.6549 86.1677 54.8143 86.2594 54.9496 86.3851C55.0849 86.5107 55.1912 86.6556 55.2685 86.8199C55.3554 86.9841 55.4231 87.158 55.4714 87.3416C55.5197 87.5156 55.5487 87.6943 55.5583 87.8779C55.5777 88.0615 55.5873 88.2451 55.5873 88.4286H53.964C53.964 88.3127 53.9544 88.1967 53.9351 88.0808C53.9254 87.9649 53.8964 87.8586 53.8481 87.7619C53.7998 87.6557 53.7225 87.5735 53.6162 87.5156C53.5196 87.4479 53.4133 87.4141 53.2973 87.4141C53.1427 87.4141 52.9978 87.4624 52.8625 87.559C52.7369 87.646 52.6355 87.7571 52.5582 87.8924C52.4809 88.018 52.4181 88.1581 52.3698 88.3127C52.3311 88.4576 52.2973 88.6074 52.2683 88.762C52.249 88.9166 52.2345 89.0712 52.2248 89.2258C52.2152 89.3707 52.2103 89.5205 52.2103 89.6751V93.6753H50.5871ZM60.5731 93.6753H59.9933C59.8001 93.6753 59.6068 93.6608 59.4136 93.6318C59.2204 93.6028 59.0368 93.5497 58.8628 93.4724C58.6889 93.3854 58.5247 93.2791 58.3701 93.1535C58.2251 93.0183 58.1044 92.8685 58.0077 92.7042C57.9208 92.5303 57.858 92.3467 57.8193 92.1535C57.7903 91.9602 57.7758 91.767 57.7758 91.5737V87.53H56.8917V86.1387H59.3846V91.5737C59.3846 91.6607 59.3943 91.7477 59.4136 91.8346C59.4329 91.9216 59.4716 92.0037 59.5296 92.081C59.5875 92.1486 59.6552 92.2018 59.7325 92.2404C59.8194 92.2694 59.9064 92.2839 59.9933 92.2839H60.5731V93.6753ZM58.5875 85.1241C58.4329 85.1241 58.2783 85.1 58.1237 85.0517C57.9691 85.0033 57.8338 84.926 57.7179 84.8198C57.6116 84.7135 57.5343 84.583 57.486 84.4284C57.4473 84.2738 57.428 84.1192 57.428 83.9646C57.428 83.81 57.4473 83.6554 57.486 83.5009C57.5343 83.3463 57.6116 83.2158 57.7179 83.1095C57.8338 83.0032 57.9691 82.9259 58.1237 82.8776C58.2783 82.8293 58.4329 82.8052 58.5875 82.8052C58.7421 82.8052 58.8967 82.8293 59.0513 82.8776C59.2059 82.9259 59.3363 83.0032 59.4426 83.1095C59.5489 83.2158 59.6262 83.3463 59.6745 83.5009C59.7228 83.6554 59.747 83.81 59.747 83.9646C59.747 84.1192 59.7228 84.2738 59.6745 84.4284C59.6262 84.583 59.5489 84.7135 59.4426 84.8198C59.3363 84.926 59.2059 85.0033 59.0513 85.0517C58.8967 85.1 58.7421 85.1241 58.5875 85.1241ZM63.8632 93.7912C63.5734 93.7912 63.2883 93.7478 63.0081 93.6608C62.7279 93.5738 62.4863 93.4289 62.2834 93.226C62.0902 93.0134 61.9501 92.767 61.8631 92.4868C61.7762 92.2066 61.7327 91.9216 61.7327 91.6317C61.7327 91.3805 61.7617 91.1293 61.8196 90.878C61.8873 90.6172 61.9936 90.3853 62.1385 90.1824C62.2931 89.9794 62.4767 89.8055 62.6892 89.6606C62.9115 89.506 63.1434 89.39 63.3849 89.3127C63.6265 89.2258 63.8729 89.1678 64.1241 89.1388C64.385 89.1002 64.641 89.0809 64.8923 89.0809H65.7764V88.5881C65.7764 88.4238 65.7522 88.2692 65.7039 88.1243C65.6556 87.9697 65.5735 87.8392 65.4575 87.733C65.3512 87.617 65.2208 87.5349 65.0662 87.4866C64.9116 87.4383 64.757 87.4141 64.6024 87.4141C64.4575 87.4141 64.3174 87.4286 64.1821 87.4576C64.0468 87.4866 63.9212 87.5445 63.8052 87.6315C63.6893 87.7088 63.5975 87.8151 63.5299 87.9504C63.4622 88.076 63.4284 88.2064 63.4284 88.3417V88.3707H61.8196V88.2982C61.8196 88.076 61.8535 87.8586 61.9211 87.646C61.9887 87.4238 62.0854 87.2209 62.211 87.0373C62.3366 86.844 62.4912 86.6846 62.6748 86.559C62.868 86.4237 63.0661 86.3174 63.269 86.2401C63.4816 86.1532 63.699 86.0952 63.9212 86.0662C64.1531 86.0372 64.3802 86.0227 64.6024 86.0227C64.8439 86.0227 65.0807 86.042 65.3126 86.0807C65.5541 86.1097 65.7812 86.1725 65.9938 86.2691C66.216 86.3657 66.4189 86.4962 66.6025 86.6604C66.7861 86.815 66.9358 86.9986 67.0518 87.2112C67.1774 87.4141 67.2644 87.6363 67.3127 87.8779C67.361 88.1098 67.3851 88.3465 67.3851 88.5881V93.6753H65.7764V92.4868C65.6991 92.6801 65.5976 92.8637 65.472 93.0376C65.3464 93.2018 65.1966 93.3419 65.0227 93.4579C64.8584 93.5738 64.6749 93.656 64.4719 93.7043C64.269 93.7623 64.0661 93.7912 63.8632 93.7912ZM64.5444 92.3999C64.7183 92.3999 64.8874 92.3709 65.0517 92.3129C65.2159 92.2549 65.3512 92.1631 65.4575 92.0375C65.5735 91.9023 65.6556 91.7525 65.7039 91.5882C65.7522 91.4143 65.7764 91.2404 65.7764 91.0665V90.4722H64.8923C64.7763 90.4722 64.6604 90.4771 64.5444 90.4867C64.4285 90.4964 64.3125 90.5157 64.1966 90.5447C64.0903 90.5737 63.984 90.6172 63.8777 90.6751C63.7714 90.7234 63.6748 90.7863 63.5878 90.8636C63.5105 90.9409 63.4477 91.0375 63.3994 91.1534C63.3608 91.2597 63.3415 91.3708 63.3415 91.4868C63.3415 91.622 63.3753 91.7573 63.4429 91.8926C63.5105 92.0182 63.6023 92.1197 63.7183 92.197C63.8439 92.2743 63.9792 92.3274 64.1241 92.3564C64.269 92.3854 64.4091 92.3999 64.5444 92.3999ZM72.6463 93.6753H72.0666C71.8733 93.6753 71.6801 93.6608 71.4868 93.6318C71.2936 93.6028 71.11 93.5497 70.9361 93.4724C70.7621 93.3854 70.5979 93.2791 70.4433 93.1535C70.2983 93.0183 70.1776 92.8685 70.0809 92.7042C69.994 92.5303 69.9312 92.3467 69.8925 92.1535C69.8635 91.9602 69.849 91.767 69.849 91.5737V84.4139H68.9649V83.0226H71.4578V91.5737C71.4578 91.6607 71.4675 91.7477 71.4868 91.8346C71.5061 91.9216 71.5448 92.0037 71.6028 92.081C71.6607 92.1486 71.7284 92.2018 71.8057 92.2404C71.8926 92.2694 71.9796 92.2839 72.0666 92.2839H72.6463V93.6753Z" fill="black"/>
<defs>
<clipPath id="clip0_1242_946">
<rect width="64.013" height="41.0649" fill="white" transform="translate(19.3247 15.7012)"/>
</clipPath>
</defs>
</svg>
