<svg width="83" height="100" viewBox="0 0 83 100" fill="none" xmlns="http://www.w3.org/2000/svg">
<rect x="9.22217" width="64.5556" height="64.5556" rx="7.01691" fill="#00B8BC"/>
<g clip-path="url(#clip0_1157_1166)">
<path d="M43.7098 36.2708C44.0377 37.1689 44.4907 38.6486 44.7264 40.6252C44.9916 42.8595 44.8553 44.722 44.7264 45.8153H47.2974C47.3931 44.4902 47.4447 42.5761 47.2053 40.3308C46.9917 38.3725 46.6233 36.8008 46.3066 35.6929C45.441 35.8843 44.5791 36.0757 43.7135 36.2708H43.7098Z" fill="#FFF0DC" stroke="black" stroke-width="0.375599" stroke-miterlimit="10"/>
<path d="M37.1869 36.2708C36.8701 37.1689 36.4318 38.6486 36.2035 40.6252C35.9493 42.8595 36.0782 44.722 36.2035 45.8153H33.7209C33.6288 44.4902 33.5773 42.5761 33.813 40.3308C34.0193 38.3725 34.3729 36.8008 34.6823 35.6929C35.5184 35.8843 36.3545 36.0757 37.1869 36.2708Z" fill="#FFF0DC" stroke="black" stroke-width="0.375599" stroke-miterlimit="10"/>
<path d="M54.4471 25.4975C55.7068 26.4398 56.9628 27.3821 58.2225 28.3281C60.2741 26.2374 62.322 24.1503 64.3736 22.0596C65.0219 22.8105 65.6738 23.5614 66.3221 24.3123C64.0679 26.6459 61.8174 28.9759 59.5632 31.3096C59.1691 31.5231 58.5319 31.7807 57.7621 31.7292C56.333 31.6298 55.0438 30.5035 54.4471 28.8765V25.5012V25.4975Z" fill="#051319"/>
<path d="M26.2441 21.772C24.8407 22.7327 23.4337 23.6897 22.0304 24.6504C20.2329 25.7252 18.8001 26.7191 17.7651 27.4847C16.2071 28.6368 15.6104 29.211 15.5478 30.0024C15.4925 30.7128 15.7246 31.5189 16.6822 32.222C18.4502 33.5213 20.2219 34.8207 21.9899 36.12C22.6713 35.2771 23.349 34.4305 24.0304 33.5876C22.5276 32.5643 21.0212 31.5447 19.5184 30.5214C20.8075 29.5423 22.325 28.5153 24.0857 27.5399C25.1722 26.9362 26.222 26.4209 27.2128 25.9866C26.8886 24.5805 26.5645 23.1781 26.2404 21.772H26.2441Z" fill="#051319"/>
<path d="M43.8085 45.503C43.9079 46.0919 43.9853 46.7287 44.0368 47.406C44.1473 48.9151 44.0737 50.2697 43.9337 51.4145H46.221V50.8954C46.442 51.0684 46.6593 51.2415 46.8803 51.4145H52.5416C53.3408 50.8955 53.8565 49.99 53.8454 49.044C53.827 47.5753 52.5452 46.5005 51.3629 46.3496C49.9817 46.1729 49.0056 47.2919 48.8804 47.4428C48.7293 47.5606 48.5783 47.6784 48.4273 47.7925C48.3942 47.0305 48.3573 46.2686 48.3242 45.5103C47.687 45.3778 46.8877 45.2674 45.9632 45.2748C45.1308 45.2821 44.4052 45.3778 43.8122 45.4993L43.8085 45.503Z" fill="black"/>
<path d="M37.1854 45.503C37.0896 46.0919 37.0086 46.7287 36.9607 47.406C36.8539 48.9151 36.9238 50.2697 37.0638 51.4145H34.817V50.8954C34.6034 51.0684 34.3861 51.2415 34.1724 51.4145H28.6143C27.8298 50.8955 27.3252 49.99 27.3362 49.044C27.3547 47.5753 28.6143 46.5005 29.7746 46.3496C31.13 46.1729 32.0877 47.2919 32.2129 47.4428C32.3602 47.5606 32.5076 47.6784 32.6549 47.7925C32.6881 47.0305 32.7249 46.2686 32.758 45.5103C33.3842 45.3778 34.1687 45.2674 35.0785 45.2748C35.8962 45.2821 36.6071 45.3778 37.189 45.4993L37.1854 45.503Z" fill="black"/>
<path d="M52.524 18.1582H28.6562V34.6779H52.524V18.1582Z" fill="#00B8BC"/>
<path d="M55.201 15.5186H25.9815C25.6094 15.5186 25.3 15.8204 25.3 16.1995V36.6394C25.3 37.0112 25.6094 37.313 25.9815 37.313H55.2047C55.5767 37.313 55.8787 37.0112 55.8787 36.6394V16.1995C55.8787 15.8204 55.5767 15.5186 55.2047 15.5186H55.201ZM52.5233 33.9965C52.5233 34.3757 52.2139 34.6775 51.8419 34.6775H29.3369C28.9576 34.6775 28.6555 34.3757 28.6555 33.9965V18.835C28.6555 18.4633 28.9576 18.1541 29.3369 18.1541H51.8419C52.2139 18.1541 52.5233 18.4633 52.5233 18.835V33.9965Z" fill="#00202F" stroke="black" stroke-width="0.375599" stroke-miterlimit="10"/>
<path d="M39.2699 21.772H38.9531C38.8229 21.772 38.7174 21.8774 38.7174 22.0075V24.4148C38.7174 24.5449 38.8229 24.6504 38.9531 24.6504H39.2699C39.4001 24.6504 39.5056 24.5449 39.5056 24.4148V22.0075C39.5056 21.8774 39.4001 21.772 39.2699 21.772Z" fill="black"/>
<path d="M42.3972 21.772H42.0805C41.9503 21.772 41.8447 21.8774 41.8447 22.0075V24.4148C41.8447 24.5449 41.9503 24.6504 42.0805 24.6504H42.3972C42.5274 24.6504 42.633 24.5449 42.633 24.4148V22.0075C42.633 21.8774 42.5274 21.772 42.3972 21.772Z" fill="black"/>
<path d="M35.7604 23.2114C35.8046 23.8777 36.0145 25.8653 37.5615 27.6763C38.8801 29.2223 40.4603 29.8002 41.1269 30.0026" stroke="black" stroke-width="1.1268" stroke-linecap="round" stroke-linejoin="round"/>
<path d="M69.9332 24.1615C69.8485 24.121 69.6349 24.0216 69.3439 23.856C69.1745 23.7603 69.0382 23.6793 68.9572 23.6278C68.8909 23.591 68.8504 23.521 68.8614 23.4511C68.8651 23.3959 68.8982 23.348 68.9461 23.3259C68.9682 23.3039 68.994 23.3002 69.0235 23.2928H69.0272C69.576 23.0131 69.9885 22.7333 70.2647 22.5272C70.8983 22.056 71.5023 21.607 71.4213 21.1542C71.3845 20.9444 71.2114 20.8156 71.1708 20.7861C70.8872 20.5727 70.5263 20.65 69.3476 20.9592C68.8982 21.0769 68.5225 21.18 68.2389 21.2573C68.2021 21.2941 68.1469 21.3125 68.1027 21.3125C68.1027 21.3125 68.099 21.3137 68.0916 21.3162C68.0364 21.3162 67.9885 21.2904 67.9664 21.2573C67.9443 21.2242 67.9443 21.18 67.9627 21.1322C67.9737 21.099 67.9885 21.0733 68.0179 21.0475C68.25 20.5469 68.4562 20.0905 68.6294 19.6856C69.0529 18.7175 69.1413 18.4414 69.0087 18.1838C68.8725 17.9188 68.541 17.7384 68.2389 17.7531C67.6975 17.7826 67.2886 18.4451 66.9461 19.0046C66.9461 19.0046 66.5041 19.7261 66.0437 20.153C65.9811 20.2119 65.8374 20.3371 65.6975 20.304C65.5722 20.2745 65.5096 20.1273 65.4838 20.061C65.2297 19.45 64.9498 18.8537 64.6919 18.2427C64.4415 17.6427 64.3089 17.3409 64.0068 17.2231C63.7416 17.12 63.3438 17.1568 63.1118 17.385C62.7987 17.6979 62.946 18.2132 63.2481 20.0463C63.4543 21.2941 63.4691 21.5555 63.3438 21.8573C63.086 22.4941 62.4304 22.8438 61.8853 23.0388C62.353 23.1898 63.1744 23.5247 63.97 24.2572C64.8135 25.0376 65.2149 25.8915 65.3917 26.3516C65.8448 25.3136 66.412 25.0633 66.6699 24.9897C67.2076 24.8314 67.7343 25.0081 68.7251 25.4056C70.0069 25.921 70.3642 26.1933 70.7583 26.0019C71.0235 25.8731 71.2261 25.575 71.2187 25.3099C71.2003 24.7615 70.2721 24.3198 69.9332 24.1505V24.1615Z" fill="#FFF0DC" stroke="black" stroke-width="0.375599" stroke-miterlimit="10"/>
<path d="M69.6868 31.6997C69.731 31.685 69.7752 31.6629 69.823 31.6445C69.7862 31.6813 69.731 31.6997 69.6868 31.6997Z" fill="#FFF0DC"/>
<path d="M27.7779 32.4985C27.7374 32.5353 27.6527 32.6163 27.5422 32.7267C27.4759 32.793 27.3985 32.8703 27.3138 32.9586C27.1812 33.0985 27.0781 33.2126 27.0155 33.2862C26.9639 33.3414 26.9455 33.4187 26.9786 33.4776C27.0007 33.5255 27.0449 33.5549 27.0965 33.5586C27.1223 33.5696 27.1518 33.566 27.1775 33.5623H27.1812C27.7853 33.6322 28.2604 33.7463 28.5846 33.842C29.3286 34.0555 30.0358 34.2616 30.0947 34.6886C30.1205 34.8874 29.9989 35.0567 29.9695 35.0972C29.7669 35.377 29.4023 35.4285 28.1905 35.5315C27.73 35.572 27.3433 35.6015 27.0523 35.6236C27.0044 35.6015 26.9492 35.6052 26.9087 35.6199C26.9087 35.6199 26.905 35.6199 26.8976 35.6199C26.846 35.6383 26.8092 35.6751 26.7982 35.7119C26.7871 35.7487 26.7982 35.7855 26.8313 35.8223C26.8497 35.8481 26.8755 35.8665 26.9087 35.8812C27.2807 36.253 27.6122 36.5916 27.9032 36.8935C28.5956 37.6186 28.765 37.8321 28.7172 38.1045C28.6693 38.3805 28.4114 38.6529 28.1168 38.7376C27.5938 38.8885 27.0081 38.4284 26.5109 38.0419C26.5109 38.0419 25.8737 37.545 25.3064 37.3131C25.2291 37.28 25.056 37.2137 24.9344 37.291C24.8276 37.3573 24.8092 37.5082 24.8055 37.5781C24.7466 38.2039 24.6655 38.8259 24.6103 39.4517C24.555 40.0664 24.5219 40.3793 24.2714 40.578C24.0504 40.7547 23.6637 40.8504 23.3764 40.7216C22.9823 40.5449 22.9675 40.0369 22.6987 38.3143C22.5145 37.1364 22.4482 36.9008 22.2419 36.6726C21.8073 36.1867 21.078 36.091 20.5034 36.091C20.9417 35.7377 21.5568 35.1708 22.1057 34.3353C22.6545 33.4997 22.9197 32.723 23.0523 32.1967C23.148 32.3218 23.3617 32.5574 23.7263 32.701C23.7484 32.7083 24.0652 32.8298 24.4372 32.8151C25.0155 32.7893 25.3948 32.4396 26.2567 31.7807C27.8221 30.5845 28.1389 30.5808 28.3267 30.6434C28.614 30.7427 28.8387 31.074 28.824 31.3427C28.8092 31.6261 28.533 31.8028 27.7816 32.5059L27.7779 32.4985Z" fill="#FFF0DC" stroke="black" stroke-width="0.375599" stroke-miterlimit="10"/>
<path d="M21.6045 36.3008C22.0391 35.9033 22.6027 35.2996 23.0852 34.4604C23.4756 33.7831 23.7003 33.15 23.8329 32.6567" stroke="black" stroke-width="0.187799" stroke-miterlimit="10"/>
<path d="M66.1064 25.3131C65.8006 24.8088 65.3181 24.1389 64.5851 23.5021C63.9958 22.9868 63.4212 22.6445 62.9608 22.4199" stroke="black" stroke-width="0.187799" stroke-miterlimit="10"/>
</g>
<path d="M4.29387 94.311V80.1678H1.17307V78.043H9.8936V80.1678H6.7728V94.311H4.29387ZM15.5376 94.4881C15.1835 94.4881 14.8367 94.4291 14.4973 94.311C14.1727 94.193 13.8776 94.0159 13.612 93.7798C13.3612 93.529 13.1546 93.2486 12.9923 92.9388C12.83 92.6289 12.6972 92.3043 12.5939 91.9649C12.5053 91.6255 12.4463 91.2861 12.4168 90.9468C12.3873 90.5926 12.3725 90.2385 12.3725 89.8844V82.8017H14.8293V89.8844C14.8293 90.0762 14.8367 90.268 14.8515 90.4598C14.881 90.6517 14.9179 90.8435 14.9621 91.0353C15.0212 91.2124 15.0949 91.3821 15.1835 91.5444C15.2868 91.7067 15.4048 91.8542 15.5376 91.987C15.6852 92.1198 15.8475 92.2157 16.0245 92.2748C16.2164 92.3338 16.4082 92.3633 16.6 92.3633C16.7918 92.3633 16.9763 92.3338 17.1533 92.2748C17.3452 92.2157 17.5075 92.1198 17.6403 91.987C17.7878 91.8542 17.9059 91.7067 17.9944 91.5444C18.0977 91.3821 18.1715 91.2124 18.2157 91.0353C18.2748 90.8435 18.3116 90.6517 18.3264 90.4598C18.3559 90.268 18.3707 90.0762 18.3707 89.8844V82.8017H20.8275V91.8985C20.8275 91.9723 20.8348 92.0387 20.8496 92.0977C20.8644 92.1567 20.8939 92.2084 20.9381 92.2526C20.9824 92.2969 21.034 92.3264 21.0931 92.3412C21.1521 92.3559 21.2185 92.3633 21.2923 92.3633H21.7349V94.4881H21.2923C20.9529 94.4881 20.6135 94.4512 20.2741 94.3774C19.9348 94.3037 19.6249 94.1709 19.3445 93.979C19.0642 93.7872 18.8355 93.5437 18.6584 93.2486C18.4961 92.9388 18.4002 92.6141 18.3707 92.2748C18.2674 92.5846 18.1272 92.8797 17.9501 93.1601C17.7878 93.4405 17.5812 93.6839 17.3304 93.8905C17.0796 94.0971 16.7992 94.2446 16.4893 94.3332C16.1795 94.4365 15.8622 94.4881 15.5376 94.4881ZM28.9283 94.4881C28.5889 94.4881 28.2421 94.4438 27.888 94.3553C27.5486 94.2668 27.2314 94.1192 26.9363 93.9126C26.6559 93.7061 26.4124 93.4552 26.2059 93.1601C26.014 92.865 25.8591 92.5551 25.7411 92.2305C25.623 91.8911 25.5419 91.5444 25.4976 91.1902C25.4533 90.8361 25.4312 90.482 25.4312 90.1278V84.9265H23.6827V82.8017H25.4312V78.043H27.9101V82.8017H31.4293V84.9265H27.9101V90.1278C27.9101 90.2901 27.9101 90.4451 27.9101 90.5926C27.9249 90.7402 27.9396 90.8877 27.9544 91.0353C27.9839 91.1829 28.0208 91.3304 28.0651 91.478C28.1093 91.6255 28.161 91.7657 28.22 91.8985C28.2938 92.0165 28.3897 92.1272 28.5077 92.2305C28.6405 92.319 28.7807 92.3633 28.9283 92.3633C29.0758 92.3633 29.2086 92.319 29.3267 92.2305C29.4595 92.142 29.5628 92.0387 29.6365 91.9206C29.7103 91.7878 29.762 91.655 29.7915 91.5222C29.8357 91.3747 29.8726 91.2345 29.9021 91.1017C29.9316 90.9541 29.9464 90.8066 29.9464 90.659C29.9612 90.5115 29.9685 90.3713 29.9685 90.2385V90.1278H32.4475V90.327C32.4475 90.6664 32.418 91.0058 32.3589 91.3452C32.2999 91.6845 32.204 92.0165 32.0712 92.3412C31.9532 92.651 31.7908 92.9461 31.5843 93.2265C31.3924 93.5069 31.1564 93.7503 30.876 93.9569C30.5956 94.1487 30.2858 94.2815 29.9464 94.3553C29.6218 94.4438 29.2824 94.4881 28.9283 94.4881ZM38.7333 94.4881C38.3349 94.4881 37.9292 94.4512 37.516 94.3774C37.1176 94.3037 36.7413 94.1709 36.3872 93.979C36.0331 93.7872 35.7158 93.5437 35.4355 93.2486C35.1699 92.9388 34.9485 92.6068 34.7715 92.2526C34.6092 91.8837 34.4911 91.5001 34.4173 91.1017C34.3583 90.6885 34.3288 90.2828 34.3288 89.8844V87.2284C34.3288 86.83 34.3583 86.4316 34.4173 86.0332C34.4911 85.62 34.6092 85.2364 34.7715 84.8822C34.9485 84.5133 35.1699 84.1813 35.4355 83.8862C35.7158 83.5764 36.0331 83.3255 36.3872 83.1337C36.7413 82.9419 37.1176 82.8091 37.516 82.7353C37.9292 82.6615 38.3349 82.6246 38.7333 82.6246C39.1317 82.6246 39.5301 82.6615 39.9285 82.7353C40.3417 82.8091 40.7253 82.9419 41.0795 83.1337C41.4336 83.3255 41.7435 83.5764 42.0091 83.8862C42.2894 84.1813 42.5108 84.5133 42.6731 84.8822C42.8501 85.2364 42.9682 85.62 43.0272 86.0332C43.101 86.4316 43.1379 86.83 43.1379 87.2284V89.8844C43.1379 90.2828 43.101 90.6885 43.0272 91.1017C42.9682 91.5001 42.8501 91.8837 42.6731 92.2526C42.5108 92.6068 42.2894 92.9388 42.0091 93.2486C41.7435 93.5437 41.4336 93.7872 41.0795 93.979C40.7253 94.1709 40.3417 94.3037 39.9285 94.3774C39.5301 94.4512 39.1317 94.4881 38.7333 94.4881ZM38.7333 92.3633C39.0284 92.3633 39.3088 92.2969 39.5744 92.1641C39.8548 92.0313 40.0761 91.8395 40.2384 91.5886C40.4155 91.3378 40.5335 91.0648 40.5925 90.7697C40.6516 90.4746 40.6811 90.1795 40.6811 89.8844V87.2284C40.6811 86.9333 40.6516 86.6381 40.5925 86.343C40.5335 86.0479 40.4155 85.7749 40.2384 85.5241C40.0761 85.2733 39.8548 85.0814 39.5744 84.9486C39.3088 84.8158 39.0284 84.7494 38.7333 84.7494C38.4382 84.7494 38.1505 84.8158 37.8701 84.9486C37.6045 85.0814 37.3832 85.2733 37.2061 85.5241C37.0438 85.7749 36.9332 86.0479 36.8741 86.343C36.8151 86.6381 36.7856 86.9333 36.7856 87.2284V89.8844C36.7856 90.1795 36.8151 90.4746 36.8741 90.7697C36.9332 91.0648 37.0438 91.3378 37.2061 91.5886C37.3832 91.8395 37.6045 92.0313 37.8701 92.1641C38.1505 92.2969 38.4382 92.3633 38.7333 92.3633ZM46.812 94.311V82.8017H49.2909V85.1921C49.3795 84.8675 49.4901 84.5576 49.6229 84.2625C49.7705 83.9526 49.9549 83.6723 50.1763 83.4214C50.3976 83.1706 50.6632 82.9788 50.9731 82.846C51.2829 82.6984 51.6002 82.6246 51.9248 82.6246C52.2052 82.6246 52.4781 82.6689 52.7437 82.7574C53.0241 82.846 53.2676 82.9861 53.4741 83.178C53.6807 83.3698 53.843 83.5911 53.9611 83.842C54.0939 84.0928 54.1972 84.3584 54.2709 84.6388C54.3447 84.9044 54.389 85.1773 54.4037 85.4577C54.4332 85.7381 54.448 86.0184 54.448 86.2988H51.9691C51.9691 86.1217 51.9543 85.9446 51.9248 85.7676C51.91 85.5905 51.8658 85.4282 51.792 85.2806C51.7182 85.1183 51.6002 84.9929 51.4379 84.9044C51.2903 84.8011 51.128 84.7494 50.9509 84.7494C50.7148 84.7494 50.4935 84.8232 50.2869 84.9708C50.0951 85.1036 49.9402 85.2733 49.8221 85.4798C49.7041 85.6717 49.6082 85.8856 49.5344 86.1217C49.4754 86.343 49.4237 86.5717 49.3795 86.8078C49.35 87.0439 49.3278 87.28 49.3131 87.5161C49.2983 87.7374 49.2909 87.9661 49.2909 88.2022V94.311H46.812ZM62.0619 94.311H61.1765C60.8814 94.311 60.5863 94.2889 60.2912 94.2446C59.9961 94.2004 59.7157 94.1192 59.4501 94.0012C59.1845 93.8684 58.9337 93.7061 58.6976 93.5142C58.4763 93.3077 58.2918 93.0789 58.1443 92.8281C58.0115 92.5625 57.9156 92.2821 57.8565 91.987C57.8123 91.6919 57.7901 91.3968 57.7901 91.1017V84.9265H56.44V82.8017H60.2469V91.1017C60.2469 91.2345 60.2617 91.3673 60.2912 91.5001C60.3207 91.6329 60.3797 91.7583 60.4683 91.8764C60.5568 91.9797 60.6601 92.0608 60.7781 92.1198C60.9109 92.1641 61.0437 92.1862 61.1765 92.1862H62.0619V94.311ZM59.0296 81.2524C58.7935 81.2524 58.5574 81.2155 58.3213 81.1417C58.0852 81.0679 57.8787 80.9499 57.7016 80.7876C57.5393 80.6253 57.4212 80.4261 57.3475 80.19C57.2884 79.9539 57.2589 79.7178 57.2589 79.4817C57.2589 79.2456 57.2884 79.0095 57.3475 78.7734C57.4212 78.5373 57.5393 78.3381 57.7016 78.1758C57.8787 78.0135 58.0852 77.8955 58.3213 77.8217C58.5574 77.7479 58.7935 77.711 59.0296 77.711C59.2657 77.711 59.5018 77.7479 59.7379 77.8217C59.974 77.8955 60.1732 78.0135 60.3355 78.1758C60.4978 78.3381 60.6158 78.5373 60.6896 78.7734C60.7634 79.0095 60.8003 79.2456 60.8003 79.4817C60.8003 79.7178 60.7634 79.9539 60.6896 80.19C60.6158 80.4261 60.4978 80.6253 60.3355 80.7876C60.1732 80.9499 59.974 81.0679 59.7379 81.1417C59.5018 81.2155 59.2657 81.2524 59.0296 81.2524ZM67.0863 94.4881C66.6436 94.4881 66.2084 94.4217 65.7804 94.2889C65.3525 94.1561 64.9836 93.9348 64.6738 93.6249C64.3787 93.3003 64.1647 92.924 64.0319 92.4961C63.8991 92.0682 63.8327 91.6329 63.8327 91.1902C63.8327 90.8066 63.877 90.4229 63.9655 90.0393C64.0688 89.6409 64.2311 89.2868 64.4524 88.9769C64.6885 88.667 64.9689 88.4014 65.2935 88.1801C65.6329 87.944 65.987 87.7669 66.3559 87.6489C66.7248 87.5161 67.1011 87.4276 67.4847 87.3833C67.8831 87.3243 68.2741 87.2948 68.6578 87.2948H70.0079V86.5422C70.0079 86.2914 69.971 86.0553 69.8972 85.834C69.8235 85.5979 69.698 85.3987 69.521 85.2364C69.3587 85.0593 69.1595 84.9339 68.9234 84.8601C68.6873 84.7863 68.4512 84.7494 68.2151 84.7494C67.9938 84.7494 67.7798 84.7716 67.5732 84.8158C67.3667 84.8601 67.1748 84.9486 66.9978 85.0814C66.8207 85.1995 66.6805 85.3618 66.5772 85.5684C66.474 85.7602 66.4223 85.9594 66.4223 86.166V86.2102H63.9655V86.0996C63.9655 85.7602 64.0172 85.4282 64.1204 85.1036C64.2237 84.7642 64.3713 84.4543 64.5631 84.174C64.7549 83.8789 64.991 83.6354 65.2714 83.4436C65.5665 83.237 65.869 83.0747 66.1788 82.9566C66.5035 82.8238 66.8355 82.7353 67.1748 82.691C67.529 82.6468 67.8757 82.6246 68.2151 82.6246C68.584 82.6246 68.9455 82.6541 69.2996 82.7132C69.6685 82.7574 70.0153 82.8533 70.3399 83.0009C70.6793 83.1485 70.9892 83.3477 71.2695 83.5985C71.5499 83.8346 71.7786 84.1149 71.9556 84.4396C72.1475 84.7494 72.2803 85.0888 72.354 85.4577C72.4278 85.8118 72.4647 86.1733 72.4647 86.5422V94.311H70.0079V92.4961C69.8899 92.7912 69.7349 93.0716 69.5431 93.3372C69.3513 93.588 69.1226 93.802 68.857 93.979C68.6061 94.1561 68.3258 94.2815 68.0159 94.3553C67.706 94.4438 67.3962 94.4881 67.0863 94.4881ZM68.1266 92.3633C68.3922 92.3633 68.6504 92.319 68.9012 92.2305C69.1521 92.142 69.3587 92.0018 69.521 91.81C69.698 91.6034 69.8235 91.3747 69.8972 91.1238C69.971 90.8582 70.0079 90.5926 70.0079 90.327V89.4196H68.6578C68.4807 89.4196 68.3036 89.4269 68.1266 89.4417C67.9495 89.4565 67.7724 89.486 67.5954 89.5302C67.4331 89.5745 67.2708 89.6409 67.1084 89.7294C66.9461 89.8032 66.7986 89.8991 66.6658 90.0172C66.5477 90.1352 66.4518 90.2828 66.378 90.4598C66.319 90.6221 66.2895 90.7918 66.2895 90.9689C66.2895 91.1755 66.3412 91.3821 66.4444 91.5886C66.5477 91.7805 66.6879 91.9354 66.865 92.0534C67.0568 92.1715 67.2634 92.2526 67.4847 92.2969C67.706 92.3412 67.92 92.3633 68.1266 92.3633ZM80.4991 94.311H79.6138C79.3187 94.311 79.0236 94.2889 78.7284 94.2446C78.4333 94.2004 78.153 94.1192 77.8874 94.0012C77.6218 93.8684 77.3709 93.7061 77.1348 93.5142C76.9135 93.3077 76.7291 93.0789 76.5815 92.8281C76.4487 92.5625 76.3528 92.2821 76.2938 91.987C76.2495 91.6919 76.2274 91.3968 76.2274 91.1017V80.1678H74.8772V78.043H78.6842V91.1017C78.6842 91.2345 78.6989 91.3673 78.7284 91.5001C78.758 91.6329 78.817 91.7583 78.9055 91.8764C78.994 91.9797 79.0973 92.0608 79.2154 92.1198C79.3482 92.1641 79.481 92.1862 79.6138 92.1862H80.4991V94.311Z" fill="black"/>
<defs>
<clipPath id="clip0_1157_1166">
<rect width="57.091" height="36.8087" fill="white" transform="translate(15.1566 14.9961)"/>
</clipPath>
</defs>
</svg>
