<svg width="45" height="54" viewBox="0 0 45 54" fill="none" xmlns="http://www.w3.org/2000/svg">
<rect x="5" width="35" height="35" rx="3.80435" fill="#00B8BC"/>
<g clip-path="url(#clip0_983_1236)">
<path d="M23.6981 19.6655C23.8759 20.1524 24.1215 20.9547 24.2493 22.0263C24.3931 23.2377 24.3192 24.2475 24.2493 24.8402H25.6432C25.6951 24.1218 25.723 23.084 25.5932 21.8667C25.4774 20.805 25.2777 19.9529 25.106 19.3522C24.6367 19.4559 24.1694 19.5597 23.7001 19.6655H23.6981Z" fill="#FFF0DC" stroke="black" stroke-width="0.203638" stroke-miterlimit="10"/>
<path d="M20.1616 19.6655C19.9899 20.1524 19.7523 20.9547 19.6284 22.0263C19.4906 23.2377 19.5605 24.2475 19.6284 24.8402H18.2825C18.2326 24.1218 18.2046 23.084 18.3324 21.8667C18.4442 20.805 18.6359 19.9529 18.8037 19.3522C19.257 19.4559 19.7103 19.5597 20.1616 19.6655Z" fill="#FFF0DC" stroke="black" stroke-width="0.203638" stroke-miterlimit="10"/>
<path d="M29.5195 13.8243C30.2024 14.3352 30.8834 14.846 31.5664 15.3589C32.6787 14.2254 33.789 13.0939 34.9013 11.9603C35.2528 12.3674 35.6062 12.7746 35.9577 13.1817C34.7355 14.4469 33.5154 15.7102 32.2933 16.9754C32.0796 17.0911 31.7341 17.2308 31.3167 17.2029C30.5419 17.149 29.843 16.5384 29.5195 15.6563V13.8263V13.8243Z" fill="#051319"/>
<path d="M14.2287 11.8046C13.4679 12.3254 12.705 12.8443 11.9442 13.3652C10.9697 13.9479 10.1929 14.4867 9.63172 14.9018C8.787 15.5265 8.46349 15.8378 8.42954 16.2668C8.39959 16.652 8.5254 17.0891 9.04461 17.4702C10.0032 18.1747 10.9637 18.8792 11.9222 19.5836C12.2917 19.1266 12.6591 18.6676 13.0286 18.2106C12.2138 17.6558 11.397 17.103 10.5823 16.5482C11.2812 16.0174 12.104 15.4606 13.0585 14.9318C13.6476 14.6045 14.2168 14.3251 14.7539 14.0896C14.5782 13.3272 14.4025 12.5669 14.2267 11.8046H14.2287Z" fill="#051319"/>
<path d="M23.7517 24.6707C23.8056 24.99 23.8476 25.3352 23.8755 25.7024C23.9354 26.5206 23.8955 27.255 23.8196 27.8757H25.0597V27.5943C25.1795 27.6881 25.2974 27.7819 25.4172 27.8757H28.4865C28.9199 27.5943 29.1994 27.1034 29.1934 26.5905C29.1835 25.7942 28.4885 25.2115 27.8475 25.1297C27.0986 25.0339 26.5694 25.6406 26.5015 25.7224C26.4197 25.7862 26.3378 25.8501 26.2559 25.912C26.2379 25.4989 26.218 25.0858 26.2 24.6747C25.8545 24.6028 25.4212 24.543 24.9199 24.5469C24.4686 24.5509 24.0752 24.6028 23.7537 24.6687L23.7517 24.6707Z" fill="black"/>
<path d="M20.1608 24.6707C20.1089 24.99 20.0649 25.3352 20.039 25.7024C19.9811 26.5206 20.019 27.255 20.0949 27.8757H18.8767V27.5943C18.7609 27.6881 18.6431 27.7819 18.5273 27.8757H15.5138C15.0885 27.5943 14.8149 27.1034 14.8209 26.5905C14.8309 25.7942 15.5138 25.2115 16.1429 25.1297C16.8778 25.0339 17.397 25.6406 17.4649 25.7224C17.5448 25.7862 17.6246 25.8501 17.7045 25.912C17.7225 25.4989 17.7425 25.0858 17.7604 24.6747C18.0999 24.6028 18.5253 24.543 19.0185 24.5469C19.4618 24.5509 19.8473 24.6028 20.1628 24.6687L20.1608 24.6707Z" fill="black"/>
<path d="M28.4768 9.84485H15.5365V18.8013H28.4768V9.84485Z" fill="#00B8BC"/>
<path d="M29.9284 8.41382H14.0865C13.8848 8.41382 13.717 8.57746 13.717 8.78301V19.8649C13.717 20.0664 13.8848 20.2301 14.0865 20.2301H29.9304C30.1321 20.2301 30.2959 20.0664 30.2959 19.8649V8.78301C30.2959 8.57746 30.1321 8.41382 29.9304 8.41382H29.9284ZM28.4766 18.432C28.4766 18.6375 28.3089 18.8012 28.1072 18.8012H15.9057C15.7 18.8012 15.5363 18.6375 15.5363 18.432V10.2119C15.5363 10.0103 15.7 9.84271 15.9057 9.84271H28.1072C28.3089 9.84271 28.4766 10.0103 28.4766 10.2119V18.432Z" fill="#00202F" stroke="black" stroke-width="0.203638" stroke-miterlimit="10"/>
<path d="M21.2909 11.8044H21.1192C21.0486 11.8044 20.9914 11.8616 20.9914 11.9322V13.2373C20.9914 13.3079 21.0486 13.365 21.1192 13.365H21.2909C21.3615 13.365 21.4187 13.3079 21.4187 13.2373V11.9322C21.4187 11.8616 21.3615 11.8044 21.2909 11.8044Z" fill="black"/>
<path d="M22.9864 11.8044H22.8147C22.7441 11.8044 22.6869 11.8616 22.6869 11.9322V13.2373C22.6869 13.3079 22.7441 13.365 22.8147 13.365H22.9864C23.057 13.365 23.1142 13.3079 23.1142 13.2373V11.9322C23.1142 11.8616 23.057 11.8044 22.9864 11.8044Z" fill="black"/>
<path d="M19.3882 12.5847C19.4122 12.9459 19.526 14.0236 20.3648 15.0054C21.0797 15.8436 21.9364 16.1569 22.2978 16.2667" stroke="black" stroke-width="0.610914" stroke-linecap="round" stroke-linejoin="round"/>
<path d="M37.9155 13.0996C37.8696 13.0777 37.7537 13.0238 37.596 12.934C37.5041 12.8821 37.4302 12.8382 37.3863 12.8103C37.3504 12.7903 37.3284 12.7524 37.3344 12.7145C37.3364 12.6845 37.3543 12.6586 37.3803 12.6466C37.3923 12.6347 37.4063 12.6327 37.4222 12.6287H37.4242C37.7218 12.477 37.9454 12.3253 38.0952 12.2136C38.4387 11.9581 38.7662 11.7147 38.7223 11.4692C38.7023 11.3554 38.6084 11.2856 38.5865 11.2696C38.4327 11.1539 38.237 11.1958 37.598 11.3634C37.3543 11.4273 37.1507 11.4832 36.9969 11.5251C36.9769 11.545 36.947 11.555 36.923 11.555C36.923 11.555 36.921 11.5557 36.917 11.557C36.8871 11.557 36.8611 11.543 36.8491 11.5251C36.8371 11.5071 36.8371 11.4832 36.8471 11.4572C36.8531 11.4393 36.8611 11.4253 36.8771 11.4113C37.0029 11.1399 37.1147 10.8924 37.2086 10.6729C37.4382 10.1481 37.4861 9.9984 37.4143 9.8587C37.3404 9.71501 37.1606 9.61723 36.9969 9.62521C36.7033 9.64118 36.4817 10.0004 36.296 10.3037C36.296 10.3037 36.0563 10.6949 35.8067 10.9264C35.7728 10.9583 35.6949 11.0262 35.619 11.0082C35.5511 10.9922 35.5171 10.9124 35.5032 10.8765C35.3654 10.5452 35.2136 10.2219 35.0738 9.89063C34.938 9.56534 34.8661 9.4017 34.7024 9.33784C34.5586 9.28196 34.3429 9.30191 34.2171 9.42564C34.0474 9.59528 34.1273 9.87467 34.291 10.8685C34.4028 11.545 34.4108 11.6867 34.3429 11.8504C34.2031 12.1956 33.8477 12.3852 33.5521 12.491C33.8057 12.5728 34.2511 12.7544 34.6824 13.1515C35.1397 13.5746 35.3574 14.0376 35.4532 14.2871C35.6989 13.7243 36.0064 13.5886 36.1462 13.5487C36.4377 13.4628 36.7233 13.5586 37.2605 13.7742C37.9554 14.0536 38.1491 14.2012 38.3628 14.0975C38.5066 14.0276 38.6164 13.866 38.6124 13.7223C38.6025 13.4249 38.0992 13.1855 37.9155 13.0937V13.0996Z" fill="#FFF0DC" stroke="black" stroke-width="0.203638" stroke-miterlimit="10"/>
<path d="M37.7819 17.1868C37.8059 17.1788 37.8298 17.1668 37.8558 17.1569C37.8358 17.1768 37.8059 17.1868 37.7819 17.1868Z" fill="#FFF0DC"/>
<path d="M15.0602 17.6197C15.0383 17.6397 14.9923 17.6836 14.9324 17.7435C14.8965 17.7794 14.8545 17.8213 14.8086 17.8692C14.7367 17.945 14.6808 18.0069 14.6468 18.0468C14.6189 18.0767 14.6089 18.1187 14.6269 18.1506C14.6389 18.1765 14.6628 18.1925 14.6908 18.1945C14.7048 18.2005 14.7207 18.1985 14.7347 18.1965H14.7367C15.0642 18.2344 15.3218 18.2963 15.4976 18.3482C15.9009 18.4639 16.2844 18.5757 16.3163 18.8072C16.3303 18.9149 16.2644 19.0067 16.2484 19.0287C16.1386 19.1803 15.9409 19.2083 15.2839 19.2642C15.0343 19.2861 14.8246 19.3021 14.6668 19.3141C14.6409 19.3021 14.6109 19.3041 14.5889 19.3121C14.5889 19.3121 14.5869 19.3121 14.5829 19.3121C14.555 19.322 14.535 19.342 14.529 19.3619C14.523 19.3819 14.529 19.4019 14.547 19.4218C14.557 19.4358 14.571 19.4458 14.5889 19.4537C14.7906 19.6553 14.9704 19.8389 15.1281 20.0026C15.5035 20.3957 15.5954 20.5114 15.5694 20.6591C15.5435 20.8088 15.4037 20.9565 15.2439 21.0024C14.9604 21.0842 14.6429 20.8347 14.3733 20.6252C14.3733 20.6252 14.0278 20.3558 13.7203 20.2301C13.6783 20.2121 13.5845 20.1762 13.5186 20.2181C13.4606 20.254 13.4507 20.3358 13.4487 20.3737C13.4167 20.713 13.3728 21.0503 13.3428 21.3895C13.3129 21.7228 13.2949 21.8924 13.1591 22.0002C13.0393 22.096 12.8296 22.1479 12.6738 22.078C12.4602 21.9822 12.4522 21.7068 12.3064 20.7729C12.2066 20.1343 12.1706 20.0065 12.0588 19.8828C11.8231 19.6194 11.4277 19.5675 11.1162 19.5675C11.3538 19.3759 11.6873 19.0686 11.9849 18.6156C12.2824 18.1626 12.4262 17.7415 12.4981 17.4561C12.55 17.524 12.6659 17.6517 12.8636 17.7295C12.8755 17.7335 13.0473 17.7994 13.249 17.7914C13.5625 17.7774 13.7682 17.5878 14.2355 17.2306C15.0842 16.582 15.2559 16.58 15.3578 16.6139C15.5135 16.6678 15.6353 16.8474 15.6274 16.9931C15.6194 17.1468 15.4696 17.2426 15.0622 17.6237L15.0602 17.6197Z" fill="#FFF0DC" stroke="black" stroke-width="0.203638" stroke-miterlimit="10"/>
<path d="M11.7131 19.6813C11.9488 19.4657 12.2543 19.1384 12.5159 18.6834C12.7276 18.3162 12.8494 17.973 12.9213 17.7056" stroke="black" stroke-width="0.101819" stroke-miterlimit="10"/>
<path d="M35.8408 13.7242C35.675 13.4508 35.4134 13.0876 35.016 12.7424C34.6965 12.463 34.385 12.2774 34.1354 12.1556" stroke="black" stroke-width="0.101819" stroke-miterlimit="10"/>
</g>
<path d="M2.328 51V43.332H0.636V42.18H5.364V43.332H3.672V51H2.328ZM8.424 51.096C8.232 51.096 8.044 51.064 7.86 51C7.684 50.936 7.524 50.84 7.38 50.712C7.244 50.576 7.132 50.424 7.044 50.256C6.956 50.088 6.884 49.912 6.828 49.728C6.78 49.544 6.748 49.36 6.732 49.176C6.716 48.984 6.708 48.792 6.708 48.6V44.76H8.04V48.6C8.04 48.704 8.044 48.808 8.052 48.912C8.068 49.016 8.088 49.12 8.112 49.224C8.144 49.32 8.184 49.412 8.232 49.5C8.288 49.588 8.352 49.668 8.424 49.74C8.504 49.812 8.592 49.864 8.688 49.896C8.792 49.928 8.896 49.944 9 49.944C9.104 49.944 9.204 49.928 9.3 49.896C9.404 49.864 9.492 49.812 9.564 49.74C9.644 49.668 9.708 49.588 9.756 49.5C9.812 49.412 9.852 49.32 9.876 49.224C9.908 49.12 9.928 49.016 9.936 48.912C9.952 48.808 9.96 48.704 9.96 48.6V44.76H11.292V49.692C11.292 49.732 11.296 49.768 11.304 49.8C11.312 49.832 11.328 49.86 11.352 49.884C11.376 49.908 11.404 49.924 11.436 49.932C11.468 49.94 11.504 49.944 11.544 49.944H11.784V51.096H11.544C11.36 51.096 11.176 51.076 10.992 51.036C10.808 50.996 10.64 50.924 10.488 50.82C10.336 50.716 10.212 50.584 10.116 50.424C10.028 50.256 9.976 50.08 9.96 49.896C9.904 50.064 9.828 50.224 9.732 50.376C9.644 50.528 9.532 50.66 9.396 50.772C9.26 50.884 9.108 50.964 8.94 51.012C8.772 51.068 8.6 51.096 8.424 51.096ZM15.684 51.096C15.5 51.096 15.312 51.072 15.12 51.024C14.936 50.976 14.764 50.896 14.604 50.784C14.452 50.672 14.32 50.536 14.208 50.376C14.104 50.216 14.02 50.048 13.956 49.872C13.892 49.688 13.848 49.5 13.824 49.308C13.8 49.116 13.788 48.924 13.788 48.732V45.912H12.84V44.76H13.788V42.18H15.132V44.76H17.04V45.912H15.132V48.732C15.132 48.82 15.132 48.904 15.132 48.984C15.14 49.064 15.148 49.144 15.156 49.224C15.172 49.304 15.192 49.384 15.216 49.464C15.24 49.544 15.268 49.62 15.3 49.692C15.34 49.756 15.392 49.816 15.456 49.872C15.528 49.92 15.604 49.944 15.684 49.944C15.764 49.944 15.836 49.92 15.9 49.872C15.972 49.824 16.028 49.768 16.068 49.704C16.108 49.632 16.136 49.56 16.152 49.488C16.176 49.408 16.196 49.332 16.212 49.26C16.228 49.18 16.236 49.1 16.236 49.02C16.244 48.94 16.248 48.864 16.248 48.792V48.732H17.592V48.84C17.592 49.024 17.576 49.208 17.544 49.392C17.512 49.576 17.46 49.756 17.388 49.932C17.324 50.1 17.236 50.26 17.124 50.412C17.02 50.564 16.892 50.696 16.74 50.808C16.588 50.912 16.42 50.984 16.236 51.024C16.06 51.072 15.876 51.096 15.684 51.096ZM21 51.096C20.784 51.096 20.564 51.076 20.34 51.036C20.124 50.996 19.92 50.924 19.728 50.82C19.536 50.716 19.364 50.584 19.212 50.424C19.068 50.256 18.948 50.076 18.852 49.884C18.764 49.684 18.7 49.476 18.66 49.26C18.628 49.036 18.612 48.816 18.612 48.6V47.16C18.612 46.944 18.628 46.728 18.66 46.512C18.7 46.288 18.764 46.08 18.852 45.888C18.948 45.688 19.068 45.508 19.212 45.348C19.364 45.18 19.536 45.044 19.728 44.94C19.92 44.836 20.124 44.764 20.34 44.724C20.564 44.684 20.784 44.664 21 44.664C21.216 44.664 21.432 44.684 21.648 44.724C21.872 44.764 22.08 44.836 22.272 44.94C22.464 45.044 22.632 45.18 22.776 45.348C22.928 45.508 23.048 45.688 23.136 45.888C23.232 46.08 23.296 46.288 23.328 46.512C23.368 46.728 23.388 46.944 23.388 47.16V48.6C23.388 48.816 23.368 49.036 23.328 49.26C23.296 49.476 23.232 49.684 23.136 49.884C23.048 50.076 22.928 50.256 22.776 50.424C22.632 50.584 22.464 50.716 22.272 50.82C22.08 50.924 21.872 50.996 21.648 51.036C21.432 51.076 21.216 51.096 21 51.096ZM21 49.944C21.16 49.944 21.312 49.908 21.456 49.836C21.608 49.764 21.728 49.66 21.816 49.524C21.912 49.388 21.976 49.24 22.008 49.08C22.04 48.92 22.056 48.76 22.056 48.6V47.16C22.056 47 22.04 46.84 22.008 46.68C21.976 46.52 21.912 46.372 21.816 46.236C21.728 46.1 21.608 45.996 21.456 45.924C21.312 45.852 21.16 45.816 21 45.816C20.84 45.816 20.684 45.852 20.532 45.924C20.388 45.996 20.268 46.1 20.172 46.236C20.084 46.372 20.024 46.52 19.992 46.68C19.96 46.84 19.944 47 19.944 47.16V48.6C19.944 48.76 19.96 48.92 19.992 49.08C20.024 49.24 20.084 49.388 20.172 49.524C20.268 49.66 20.388 49.764 20.532 49.836C20.684 49.908 20.84 49.944 21 49.944ZM25.38 51V44.76H26.724V46.056C26.772 45.88 26.832 45.712 26.904 45.552C26.984 45.384 27.084 45.232 27.204 45.096C27.324 44.96 27.468 44.856 27.636 44.784C27.804 44.704 27.976 44.664 28.152 44.664C28.304 44.664 28.452 44.688 28.596 44.736C28.748 44.784 28.88 44.86 28.992 44.964C29.104 45.068 29.192 45.188 29.256 45.324C29.328 45.46 29.384 45.604 29.424 45.756C29.464 45.9 29.488 46.048 29.496 46.2C29.512 46.352 29.52 46.504 29.52 46.656H28.176C28.176 46.56 28.168 46.464 28.152 46.368C28.144 46.272 28.12 46.184 28.08 46.104C28.04 46.016 27.976 45.948 27.888 45.9C27.808 45.844 27.72 45.816 27.624 45.816C27.496 45.816 27.376 45.856 27.264 45.936C27.16 46.008 27.076 46.1 27.012 46.212C26.948 46.316 26.896 46.432 26.856 46.56C26.824 46.68 26.796 46.804 26.772 46.932C26.756 47.06 26.744 47.188 26.736 47.316C26.728 47.436 26.724 47.56 26.724 47.688V51H25.38ZM33.648 51H33.168C33.008 51 32.848 50.988 32.688 50.964C32.528 50.94 32.376 50.896 32.232 50.832C32.088 50.76 31.952 50.672 31.824 50.568C31.704 50.456 31.604 50.332 31.524 50.196C31.452 50.052 31.4 49.9 31.368 49.74C31.344 49.58 31.332 49.42 31.332 49.26V45.912H30.6V44.76H32.664V49.26C32.664 49.332 32.672 49.404 32.688 49.476C32.704 49.548 32.736 49.616 32.784 49.68C32.832 49.736 32.888 49.78 32.952 49.812C33.024 49.836 33.096 49.848 33.168 49.848H33.648V51ZM32.004 43.92C31.876 43.92 31.748 43.9 31.62 43.86C31.492 43.82 31.38 43.756 31.284 43.668C31.196 43.58 31.132 43.472 31.092 43.344C31.06 43.216 31.044 43.088 31.044 42.96C31.044 42.832 31.06 42.704 31.092 42.576C31.132 42.448 31.196 42.34 31.284 42.252C31.38 42.164 31.492 42.1 31.62 42.06C31.748 42.02 31.876 42 32.004 42C32.132 42 32.26 42.02 32.388 42.06C32.516 42.1 32.624 42.164 32.712 42.252C32.8 42.34 32.864 42.448 32.904 42.576C32.944 42.704 32.964 42.832 32.964 42.96C32.964 43.088 32.944 43.216 32.904 43.344C32.864 43.472 32.8 43.58 32.712 43.668C32.624 43.756 32.516 43.82 32.388 43.86C32.26 43.9 32.132 43.92 32.004 43.92ZM36.3721 51.096C36.1321 51.096 35.8961 51.06 35.6641 50.988C35.4321 50.916 35.2321 50.796 35.0641 50.628C34.9041 50.452 34.7881 50.248 34.7161 50.016C34.6441 49.784 34.6081 49.548 34.6081 49.308C34.6081 49.1 34.6321 48.892 34.6801 48.684C34.7361 48.468 34.8241 48.276 34.9441 48.108C35.0721 47.94 35.2241 47.796 35.4001 47.676C35.5841 47.548 35.7761 47.452 35.9761 47.388C36.1761 47.316 36.3801 47.268 36.5881 47.244C36.8041 47.212 37.0161 47.196 37.2241 47.196H37.9561V46.788C37.9561 46.652 37.9361 46.524 37.8961 46.404C37.8561 46.276 37.7881 46.168 37.6921 46.08C37.6041 45.984 37.4961 45.916 37.3681 45.876C37.2401 45.836 37.1121 45.816 36.9841 45.816C36.8641 45.816 36.7481 45.828 36.6361 45.852C36.5241 45.876 36.4201 45.924 36.3241 45.996C36.2281 46.06 36.1521 46.148 36.0961 46.26C36.0401 46.364 36.0121 46.472 36.0121 46.584V46.608H34.6801V46.548C34.6801 46.364 34.7081 46.184 34.7641 46.008C34.8201 45.824 34.9001 45.656 35.0041 45.504C35.1081 45.344 35.2361 45.212 35.3881 45.108C35.5481 44.996 35.7121 44.908 35.8801 44.844C36.0561 44.772 36.2361 44.724 36.4201 44.7C36.6121 44.676 36.8001 44.664 36.9841 44.664C37.1841 44.664 37.3801 44.68 37.5721 44.712C37.7721 44.736 37.9601 44.788 38.1361 44.868C38.3201 44.948 38.4881 45.056 38.6401 45.192C38.7921 45.32 38.9161 45.472 39.0121 45.648C39.1161 45.816 39.1881 46 39.2281 46.2C39.2681 46.392 39.2881 46.588 39.2881 46.788V51H37.9561V50.016C37.8921 50.176 37.8081 50.328 37.7041 50.472C37.6001 50.608 37.4761 50.724 37.3321 50.82C37.1961 50.916 37.0441 50.984 36.8761 51.024C36.7081 51.072 36.5401 51.096 36.3721 51.096ZM36.9361 49.944C37.0801 49.944 37.2201 49.92 37.3561 49.872C37.4921 49.824 37.6041 49.748 37.6921 49.644C37.7881 49.532 37.8561 49.408 37.8961 49.272C37.9361 49.128 37.9561 48.984 37.9561 48.84V48.348H37.2241C37.1281 48.348 37.0321 48.352 36.9361 48.36C36.8401 48.368 36.7441 48.384 36.6481 48.408C36.5601 48.432 36.4721 48.468 36.3841 48.516C36.2961 48.556 36.2161 48.608 36.1441 48.672C36.0801 48.736 36.0281 48.816 35.9881 48.912C35.9561 49 35.9401 49.092 35.9401 49.188C35.9401 49.3 35.9681 49.412 36.0241 49.524C36.0801 49.628 36.1561 49.712 36.2521 49.776C36.3561 49.84 36.4681 49.884 36.5881 49.908C36.7081 49.932 36.8241 49.944 36.9361 49.944ZM43.6441 51H43.1641C43.0041 51 42.8441 50.988 42.6841 50.964C42.5241 50.94 42.3721 50.896 42.2281 50.832C42.0841 50.76 41.9481 50.672 41.8201 50.568C41.7001 50.456 41.6001 50.332 41.5201 50.196C41.4481 50.052 41.3961 49.9 41.3641 49.74C41.3401 49.58 41.3281 49.42 41.3281 49.26V43.332H40.5961V42.18H42.6601V49.26C42.6601 49.332 42.6681 49.404 42.6841 49.476C42.7001 49.548 42.7321 49.616 42.7801 49.68C42.8281 49.736 42.8841 49.78 42.9481 49.812C43.0201 49.836 43.0921 49.848 43.1641 49.848H43.6441V51Z" fill="black"/>
<defs>
<clipPath id="clip0_983_1236">
<rect width="30.953" height="19.9565" fill="white" transform="translate(8.21741 8.13049)"/>
</clipPath>
</defs>
</svg>
